<?xml version="1.0" encoding="utf-8"?>
<!-- Generator: Adobe Illustrator 17.0.0, SVG Export Plug-In . SVG Version: 6.00 Build 0)  -->
<!DOCTYPE svg PUBLIC "-//W3C//DTD SVG 1.1//EN" "http://www.w3.org/Graphics/SVG/1.1/DTD/svg11.dtd">
<svg version="1.1" id="Layer_1" xmlns="http://www.w3.org/2000/svg" xmlns:xlink="http://www.w3.org/1999/xlink" x="0px" y="0px"
	 width="300.75px" height="283px" viewBox="0 0 300.75 283" enable-background="new 0 0 300.75 283" xml:space="preserve">
<g id="Layer_1_1_">
	<g display="none">
		<path display="inline" d="M590.237,133.278v0.924c0-0.83-0.671-1.503-1.5-1.503c-0.831,0-1.5,0.673-1.5,1.503v31.22
			c0,13.705-10.796,24.854-24.5,24.854c-13.705,0-24.5-11.148-24.5-24.854v-31.22c0-0.83-0.646-1.503-1.478-1.503
			c-0.485,0-0.9,0.235-1.18,0.595c-2.338,0.17-4.312,2.371-4.312,5.069c0,2.577,0.968,4.701,4.968,5.035v22.024
			c0,14.756,11.004,26.861,25.527,27.797c-0.004,0.058-0.527,0.111-0.527,0.173v7.878c-10,0.158-16.354,1.33-16.354,2.755
			l-1.834,2.312c0,1.687,9.119,3.054,20.355,3.054c11.238,0,20.354-1.367,20.354-3.054l-2.006-2.312
			c0-1.424-6.517-2.594-16.517-2.754v-7.879c0-0.077-0.226-0.146-0.229-0.22c14.24-1.224,25.231-13.197,25.231-27.75V143.45
			c3,0,5.086-2.277,5.086-5.087C595.323,135.554,593.237,133.278,590.237,133.278z"/>
		<g display="inline">
			
				<rect x="554.531" y="175.865" transform="matrix(-0.9836 -0.1803 0.1803 -0.9836 1084.7706 452.261)" width="16.817" height="1.93"/>
			
				<rect x="555.691" y="178.918" transform="matrix(-0.9854 -0.1705 0.1705 -0.9854 1087.0215 453.1139)" width="14.552" height="1.929"/>
			
				<rect x="558.996" y="181.912" transform="matrix(-0.9821 -0.1886 0.1886 -0.9821 1080.7068 468.5826)" width="7.299" height="1.93"/>
		</g>
		<path display="inline" d="M579.782,147.899h-0.055c2.06-3,3.256-7.22,3.256-11.271c0-11.113-9.011-20.27-20.123-20.27
			c-11.114,0-20.123,9.23-20.123,20.344c0,4.05,1.196,8.197,3.256,11.197h-0.055c0.116,0,0.228-0.011,0.339,0.131
			c0.395,0.573,0.818,0.977,1.271,1.506c6.681,9.113,7.082,16.462,7.082,20.716c0,4.115,8.229,4.078,8.229,4.078
			s8.229-0.02,8.229-4.135c0-4.255,0.401-11.686,7.084-20.798c0.449-0.529,0.873-0.79,1.269-1.364
			C579.555,147.894,579.668,147.899,579.782,147.899z"/>
		<polygon display="inline" points="573.192,112.089 581.194,105.511 586.784,108.799 593.144,97.509 586.565,104.798 
			580.209,100.797 		"/>
		<polygon display="inline" points="584.922,127.107 591.937,125.683 591.172,122.503 595.993,118.447 588.428,120.201 
			588.758,124.695 		"/>
		<path display="inline" d="M549.622,111.649c-0.108-0.547-3.508-6.851-3.508-6.851l3.508-4.33l-8.11-7.893l4.057,7.345
			l-4.057,4.275L549.622,111.649z"/>
		<polygon display="inline" points="547.066,117.681 544.141,116.288 544.689,113.515 539.866,112.637 542.17,114.391 
			542.278,117.022 		"/>
		<polygon display="inline" points="561.237,106.237 561.237,103.351 563.545,102.113 562.282,98.167 561.488,101.565 
			559.063,102.113 		"/>
		<polygon display="inline" points="538.004,125.462 533.508,122.777 534.275,118.447 527.041,116.288 531.756,119.653 
			531.232,123.819 		"/>
	</g>
</g>
<rect x="-149.084" y="-145.601" display="none" fill="#F29C00" width="674" height="545"/>
<g id="Layer_2">
	<g>
		<g>
			<path fill="#CE7B00" d="M-763.716-158.135c0.244,0.243,0.365,0.539,0.365,0.887c0,0.325-0.122,0.608-0.365,0.852
				s-0.527,0.365-0.851,0.365h-4.205v22.174c0,0.348-0.116,0.639-0.348,0.869c-0.232,0.231-0.521,0.348-0.868,0.348
				c-0.325,0-0.608-0.116-0.851-0.348c-0.244-0.23-0.365-0.521-0.365-0.869v-22.174h-4.276c-0.348,0-0.644-0.123-0.887-0.365
				c-0.243-0.245-0.364-0.526-0.364-0.853c0-0.348,0.122-0.644,0.365-0.887s0.539-0.364,0.886-0.364h10.913
				C-764.243-158.5-763.959-158.378-763.716-158.135z"/>
			<path fill="#CE7B00" d="M-748.927-158.5c0.324,0,0.608,0.122,0.851,0.365c0.244,0.243,0.365,0.527,0.365,0.852v23.426
				c0,0.323-0.122,0.607-0.365,0.851c-0.243,0.243-0.527,0.364-0.851,0.364c-0.348,0-0.644-0.121-0.887-0.364
				c-0.243-0.243-0.365-0.527-0.365-0.851v-9.037h-7.298v9.037c0,0.323-0.122,0.607-0.365,0.851s-0.539,0.364-0.887,0.364
				c-0.325,0-0.608-0.121-0.851-0.364c-0.243-0.243-0.365-0.527-0.365-0.851v-23.427c0-0.324,0.122-0.608,0.365-0.852
				s0.526-0.364,0.851-0.364c0.348,0,0.644,0.122,0.887,0.365c0.243,0.243,0.365,0.527,0.365,0.852v11.922h7.298v-11.923
				c0-0.324,0.122-0.608,0.365-0.852C-749.571-158.38-749.276-158.5-748.927-158.5z"/>
			<path fill="#CE7B00" d="M-731.082-134.745c0.243,0.243,0.364,0.539,0.364,0.888c0,0.323-0.122,0.607-0.365,0.851
				c-0.243,0.243-0.539,0.364-0.885,0.364h-9.21c-0.348,0-0.644-0.121-0.887-0.364c-0.243-0.243-0.365-0.527-0.365-0.851v-23.427
				c0-0.324,0.122-0.608,0.365-0.852s0.539-0.364,0.887-0.364h9.21c0.346,0,0.642,0.122,0.885,0.365
				c0.243,0.243,0.365,0.527,0.365,0.851c0,0.348-0.122,0.643-0.365,0.888c-0.243,0.242-0.539,0.365-0.885,0.365h-7.994v10.67h6.013
				c0.348,0,0.637,0.121,0.868,0.364c0.232,0.243,0.348,0.539,0.348,0.888c0,0.323-0.116,0.607-0.348,0.851
				c-0.231,0.243-0.52,0.364-0.868,0.364h-6.013v7.785h7.994C-731.621-135.109-731.325-134.988-731.082-134.745z"/>
		</g>
		<g>
			<path fill="#CE7B00" d="M-750.536-70.928c0.518,0.517,0.778,1.146,0.778,1.886c0,0.694-0.26,1.298-0.778,1.815
				c-0.519,0.521-1.148,0.779-1.889,0.779h-19.626c-0.741,0-1.37-0.26-1.888-0.779c-0.519-0.518-0.779-1.121-0.779-1.815v-49.915
				c0-0.689,0.26-1.296,0.778-1.814c0.519-0.519,1.147-0.777,1.888-0.777h19.626c0.741,0,1.371,0.259,1.889,0.777
				s0.778,1.125,0.778,1.814c0,0.741-0.26,1.371-0.778,1.889c-0.519,0.52-1.148,0.777-1.889,0.777h-17.033v22.736h12.812
				c0.742,0,1.358,0.26,1.852,0.777c0.494,0.518,0.741,1.147,0.741,1.889c0,0.691-0.248,1.297-0.741,1.813
				c-0.494,0.519-1.11,0.778-1.852,0.778h-12.812v16.589h17.034C-751.685-71.706-751.055-71.447-750.536-70.928z"/>
			<path fill="#CE7B00" d="M-716.802-68.746c0.148,0.693,0.024,1.325-0.37,1.891c-0.396,0.567-0.914,0.928-1.555,1.074h-0.445
				c-0.543,0-1.049-0.184-1.518-0.555c-0.47-0.37-0.753-0.828-0.852-1.371l-2-9.628h-11.997l-1.926,9.628
				c-0.1,0.543-0.383,1.001-0.852,1.371c-0.47,0.371-1,0.555-1.592,0.555h-0.444c-0.643-0.146-1.149-0.507-1.519-1.074
				c-0.371-0.564-0.482-1.195-0.333-1.891l10.295-51.174c0.048-0.197,0.098-0.32,0.148-0.37v-0.073v-0.074
				c0.098-0.248,0.222-0.42,0.371-0.52v-0.148h0.073v-0.074h0.075v-0.074h0.073v-0.074h0.075c0.099-0.098,0.197-0.172,0.296-0.222
				c0.098-0.048,0.222-0.099,0.37-0.147v-0.074h0.073c0.099-0.049,0.21-0.074,0.334-0.074c0.123,0,0.234-0.023,0.333-0.074h0.074
				h0.148h0.075c0.098,0.05,0.208,0.074,0.333,0.074c0.123,0,0.233,0.025,0.333,0.074h0.074v0.074
				c0.197,0.051,0.345,0.1,0.444,0.147c0.099,0.05,0.197,0.124,0.296,0.222h0.074v0.074h0.074v0.074h0.075v0.074l0.074,0.148
				c0.049,0.1,0.111,0.186,0.185,0.26c0.074,0.074,0.135,0.16,0.186,0.26v0.074v0.073c0.049,0.05,0.074,0.173,0.074,0.37
				L-716.802-68.746z M-724.504-82.148l-5.111-25.033l-4.962,25.033C-734.577-82.148-724.504-82.148-724.504-82.148z"/>
			<path fill="#CE7B00" d="M-697.397-66.15c-3.457,0-6.369-0.986-8.74-2.963c-0.938-0.789-1.864-1.986-2.775-3.593
				c-0.914-1.604-1.369-3.788-1.369-6.556c0-0.739,0.256-1.355,0.776-1.85c0.517-0.494,1.147-0.742,1.89-0.742
				c0.689,0,1.281,0.248,1.775,0.742c0.493,0.493,0.741,1.109,0.741,1.85c0,1.631,0.233,2.965,0.702,4
				c0.469,1.037,1.074,1.842,1.816,2.406c0.738,0.568,1.565,0.963,2.479,1.186c0.911,0.223,1.815,0.335,2.702,0.335
				c0.494,0,1.195-0.062,2.109-0.187c0.914-0.123,1.814-0.455,2.706-1c0.888-0.543,1.664-1.332,2.332-2.371
				c0.666-1.035,1-2.492,1-4.369c0-1.825-0.26-3.43-0.776-4.812c-0.521-1.381-1.236-2.615-2.148-3.703
				c-0.915-1.084-1.963-2.084-3.146-3c-1.188-0.912-2.445-1.838-3.777-2.777c-1.186-0.84-2.383-1.729-3.594-2.666
				s-2.309-1.975-3.293-3.111c-2.323-2.715-3.51-5.85-3.559-9.404c0-0.197,0.014-0.594,0.039-1.187
				c0.023-0.593,0.111-1.283,0.258-2.074c0.445-2.519,1.432-4.616,2.965-6.295c2.221-2.319,5.207-3.479,8.961-3.479
				c3.801,0,6.74,1.16,8.812,3.479c0.74,0.84,1.334,1.804,1.777,2.888c0.443,1.088,0.715,2.272,0.813,3.555
				c0.101,0.89,0.136,1.644,0.111,2.26c-0.025,0.617-0.062,0.977-0.111,1.074c-0.147,0.642-0.321,1.209-0.521,1.703
				c-0.245,0.396-0.543,0.74-0.887,1.037c-0.348,0.295-0.865,0.396-1.555,0.295c-0.693-0.098-1.188-0.356-1.482-0.776
				c-0.297-0.419-0.494-0.853-0.594-1.296c-0.146-0.543-0.172-1.111-0.074-1.704c0.101-0.69,0.101-1.356,0-1.999
				c-0.098-0.543-0.246-1.148-0.442-1.814c-0.197-0.668-0.519-1.271-0.964-1.814c-0.986-1.186-2.618-1.777-4.887-1.777
				c-2.271,0-3.976,0.643-5.11,1.926c-0.544,0.545-0.95,1.16-1.222,1.852c-0.271,0.691-0.459,1.31-0.557,1.853
				c-0.146,0.692-0.197,1.358-0.146,2v0.222c0,1.235,0.197,2.347,0.593,3.334c0.396,0.988,0.95,1.901,1.667,2.74
				c0.714,0.84,1.578,1.666,2.592,2.48c1.012,0.814,2.158,1.691,3.443,2.63c1.432,0.938,2.826,1.938,4.183,3
				c1.358,1.062,2.631,2.308,3.813,3.739c2.666,3.258,4,7.136,4,11.627c0,2.271-0.383,4.234-1.147,5.888
				c-0.767,1.657-1.774,3.015-3.035,4.074c-1.26,1.062-2.69,1.851-4.297,2.37C-694.153-66.41-695.769-66.15-697.397-66.15z"/>
			<path fill="#CE7B00" d="M-650.776-120.771c0.52,0.519,0.776,1.147,0.776,1.889c0,0.691-0.258,1.296-0.776,1.814
				c-0.521,0.519-1.123,0.776-1.814,0.776h-8.963v47.249c0,0.743-0.248,1.361-0.74,1.854c-0.494,0.494-1.109,0.742-1.85,0.742
				c-0.693,0-1.299-0.248-1.816-0.742c-0.517-0.492-0.777-1.11-0.777-1.854v-47.248h-9.108c-0.74,0-1.369-0.259-1.888-0.777
				c-0.52-0.518-0.778-1.121-0.778-1.813c0-0.741,0.26-1.371,0.778-1.888c0.519-0.52,1.146-0.778,1.888-0.778h23.256
				C-651.899-121.549-651.296-121.29-650.776-120.771z"/>
		</g>
		<g>
			<path fill="#CE7B00" d="M-748.539-3.05v0.073c-0.195,0.195-0.366,0.324-0.517,0.371c0,0.049-0.024,0.074-0.072,0.074
				l-0.075,0.069h-0.072l-0.075,0.073h-0.075c-0.147,0.045-0.319,0.127-0.517,0.227h-0.072h-0.075h-0.073h-0.075h-0.147h-0.148
				h-0.146h-0.075h-0.072h-0.075c-0.1,0-0.174-0.029-0.223-0.078h-0.147c-0.198-0.047-0.394-0.146-0.591-0.291
				c-0.048-0.051-0.1-0.086-0.147-0.111c-0.049-0.022-0.1-0.06-0.148-0.112l-0.147-0.149h-0.075l-0.071-0.07v-0.074
				c-0.051,0-0.076-0.014-0.076-0.036c0-0.024-0.023-0.036-0.072-0.036v-0.07c0-0.05-0.015-0.08-0.039-0.08
				s-0.036-0.021-0.036-0.068h-0.073c0-0.104-0.027-0.151-0.075-0.151v-0.073l-0.075-0.145c0-0.047-0.012-0.09-0.037-0.111
				c-0.023-0.025-0.035-0.062-0.035-0.115l-6.276-18.974l-6.275,18.972c-0.051,0.055-0.075,0.125-0.075,0.228h-0.072
				c0,0.099-0.027,0.146-0.075,0.146v0.072l-0.072,0.151c-0.051,0.047-0.075,0.101-0.075,0.149c-0.047,0-0.075,0.021-0.075,0.069
				l-0.073,0.072l-0.075,0.073l-0.071,0.07l-0.147,0.15h-0.075c-0.1,0.104-0.198,0.174-0.295,0.225
				c-0.147,0.146-0.321,0.244-0.517,0.291h-0.147h-0.076c-0.051,0.049-0.099,0.078-0.146,0.078h-0.076h-0.072h-0.15h-0.072h-0.075
				h-0.147h-0.071h-0.075h-0.075h-0.072h-0.075c-0.148-0.053-0.319-0.125-0.517-0.227h-0.073h-0.075v-0.073h-0.072l-0.075-0.069
				c-0.051,0-0.075-0.025-0.075-0.074h-0.072c-0.099-0.047-0.222-0.149-0.369-0.301v-0.07h-0.075c0-0.049-0.024-0.073-0.072-0.073
				c0-0.048-0.027-0.072-0.075-0.072v-0.069l-0.072-0.08l-0.076-0.069l-0.222-0.446v-0.15c-0.048,0-0.072-0.023-0.072-0.072v-0.071
				v-0.071V-4.22c-0.051-0.047-0.075-0.127-0.075-0.228l-6.128-49.688c-0.099-0.685,0.075-1.31,0.516-1.873
				c0.445-0.566,1.034-0.9,1.773-1c0.687-0.103,1.315,0.072,1.883,0.52c0.565,0.438,0.898,1.01,0.998,1.691l4.725,38.25
				l5.092-15.508l0.076-0.078v-0.071c0-0.05,0.023-0.072,0.071-0.072v-0.071v-0.072l0.15-0.149v-0.077l0.072-0.074l0.075-0.07
				c0-0.049,0.024-0.072,0.072-0.072v-0.072h0.075v-0.078l0.072-0.072c0.051,0,0.076-0.027,0.076-0.076h0.075v-0.072l0.072-0.072
				c0.099-0.097,0.21-0.156,0.333-0.187c0.12-0.024,0.231-0.084,0.331-0.187h0.15l0.072-0.072h0.075h0.072h0.075h0.071v-0.071h0.075
				h0.076h0.072h0.075h0.072h0.075h0.072h0.076h0.075h0.072h0.075l0.071,0.071h0.076h0.147c0.047,0,0.075,0.013,0.075,0.037
				c0,0.021,0.024,0.035,0.072,0.035h0.147c0.099,0.103,0.198,0.162,0.297,0.187c0.096,0.03,0.195,0.09,0.294,0.187l0.075,0.072
				c0.048,0,0.072,0.021,0.072,0.072h0.075v0.076h0.072v0.072c0.048,0,0.075,0.031,0.075,0.078h0.072v0.072l0.076,0.072l0.075,0.07
				c0,0.049,0.024,0.074,0.072,0.074v0.077v0.071h0.076v0.078v0.072c0.048,0,0.072,0.022,0.072,0.071l0.075,0.072v0.071v0.078
				l5.167,15.508l4.725-38.25c0.1-0.684,0.43-1.254,0.999-1.691c0.563-0.445,1.191-0.621,1.882-0.52c0.688,0.1,1.265,0.434,1.734,1
				c0.469,0.563,0.652,1.188,0.553,1.873l-6.125,49.688c-0.051,0.054-0.075,0.125-0.075,0.228v0.072v0.071l-0.076,0.071v0.072
				c0,0.056-0.024,0.104-0.072,0.15c0,0.102-0.051,0.198-0.147,0.295c0,0.047-0.027,0.102-0.075,0.151v0.069h-0.072v0.08
				l-0.075,0.069v0.072h-0.075L-748.539-3.05L-748.539-3.05z"/>
			<path fill="#CE7B00" d="M-726.242-2.161c-0.737,0-1.352-0.264-1.846-0.78c-0.492-0.516-0.737-1.115-0.737-1.803v-49.764
				c0-0.692,0.245-1.293,0.737-1.809c0.494-0.518,1.109-0.774,1.846-0.774c0.691,0,1.292,0.258,1.808,0.774s0.775,1.115,0.775,1.809
				v49.764c0,0.688-0.259,1.287-0.775,1.803C-724.951-2.425-725.551-2.161-726.242-2.161z"/>
			<path fill="#CE7B00" d="M-685.931-3.191l-0.076,0.069c-0.047,0-0.072,0.024-0.072,0.072h-0.074l-0.076,0.073
				c0,0.047-0.022,0.07-0.069,0.07l-0.075,0.078h-0.074c0,0.047-0.024,0.072-0.076,0.072h-0.071v0.078h-0.074l-0.073,0.07
				c-0.195,0.099-0.394,0.146-0.591,0.146c-0.098,0.05-0.271,0.073-0.516,0.073h-0.076h-0.071h-0.074h-0.146
				c-0.1,0-0.174-0.023-0.223-0.073h-0.148c-0.098-0.047-0.158-0.069-0.184-0.069s-0.086-0.025-0.187-0.074
				c-0.049-0.047-0.098-0.07-0.146-0.07c-0.051,0-0.1-0.025-0.148-0.079l-0.074-0.072l-0.072-0.077h-0.073
				c0-0.049-0.024-0.07-0.076-0.07l-0.069-0.074l-0.076-0.072l-0.072-0.07l-0.074-0.08c-0.049-0.047-0.072-0.096-0.072-0.149
				c-0.053,0-0.076-0.022-0.076-0.07l-0.074-0.073c-0.049-0.047-0.071-0.119-0.071-0.222c-0.051-0.048-0.076-0.085-0.076-0.114
				c0-0.023-0.021-0.061-0.071-0.107L-706.819-42.1v37.129c0,0.699-0.25,1.301-0.74,1.816c-0.492,0.516-1.107,0.77-1.842,0.77
				c-0.691,0-1.295-0.254-1.812-0.77c-0.518-0.517-0.773-1.117-0.773-1.816v-49.686v-0.146v-0.069v-0.071v-0.08v-0.07v-0.078h0.072
				v-0.145v-0.072v-0.073l0.077-0.076v-0.149c0.048,0,0.071-0.023,0.071-0.074c0-0.047,0.013-0.069,0.035-0.069
				c0.023,0,0.039-0.024,0.039-0.075v-0.068h0.072v-0.078c0-0.049,0.023-0.073,0.074-0.073v-0.079l0.074-0.072l0.072-0.07
				c0-0.049,0.025-0.072,0.076-0.072c0-0.046,0.008-0.07,0.035-0.07c0.024,0,0.036-0.025,0.036-0.08c0.048,0,0.075-0.021,0.075-0.07
				h0.07l0.076-0.08l0.072-0.068c0.053,0,0.072-0.025,0.072-0.074h0.077l0.069-0.072h0.078l0.071-0.071h0.075
				c0.1-0.103,0.195-0.149,0.295-0.149s0.193-0.023,0.292-0.078h0.076c0.099-0.049,0.295-0.072,0.593-0.072h0.146h0.072
				c0.051,0,0.073,0.023,0.073,0.072h0.076h0.071h0.146c0.049,0.055,0.1,0.078,0.146,0.078l0.076,0.073h0.146l0.074,0.076
				c0.05,0,0.097,0.022,0.148,0.071h0.07c0,0.049,0.027,0.072,0.076,0.072l0.074,0.074h0.072v0.068h0.073
				c0,0.056,0.024,0.08,0.074,0.08c0,0.05,0.022,0.07,0.071,0.07c0.05,0.055,0.076,0.104,0.076,0.15
				c0.049,0,0.072,0.023,0.072,0.072h0.075v0.07h0.071v0.072c0,0.055,0.025,0.079,0.076,0.079v0.073l0.07,0.078
				c0,0.047,0.012,0.068,0.039,0.068c0.025,0,0.037,0.025,0.037,0.075l0.075,0.144l16.536,38.178V-54.73
				c0-0.685,0.244-1.285,0.736-1.801c0.492-0.521,1.107-0.783,1.848-0.783c0.688,0,1.291,0.264,1.81,0.783
				c0.517,0.516,0.774,1.116,0.774,1.801v49.688v0.221v0.079v0.072v0.07v0.072l-0.077,0.073v0.077v0.15l-0.07,0.072v0.143
				c-0.051,0-0.075,0.023-0.075,0.072v0.078l-0.07,0.072v0.077c-0.051,0-0.074,0.024-0.074,0.073v0.07h-0.076v0.073l-0.072,0.07
				c0,0.055-0.027,0.081-0.074,0.081c0,0.047-0.012,0.068-0.037,0.068C-685.919-3.271-685.931-3.242-685.931-3.191z"/>
			<path fill="#CE7B00" d="M-663.048-1.5c-3.738,0-6.643-1.176-8.711-3.544c-1.672-1.718-2.73-4.062-3.174-7.013
				c-0.1-0.834-0.16-1.573-0.184-2.215c-0.027-0.639-0.013-1.082,0.032-1.328v-28.941c0-2.259,0.359-4.23,1.074-5.906
				c0.713-1.676,1.633-3.053,2.769-4.134c1.133-1.081,2.414-1.881,3.838-2.396c1.428-0.52,2.881-0.781,4.354-0.781
				c3.151,0,5.836,0.984,8.049,2.953c0.935,0.843,1.832,2.08,2.697,3.727c0.856,1.65,1.289,3.857,1.289,6.609
				c0,0.691-0.259,1.297-0.774,1.812c-0.515,0.518-1.119,0.771-1.81,0.771c-0.736,0-1.367-0.252-1.884-0.771
				c-0.516-0.517-0.774-1.121-0.774-1.812c0-1.869-0.28-3.342-0.846-4.428c-0.57-1.082-1.22-1.894-1.962-2.435
				c-0.735-0.54-1.485-0.89-2.25-1.032c-0.762-0.15-1.342-0.229-1.735-0.229c-1.771,0-3.299,0.57-4.576,1.705
				c-1.524,1.424-2.286,3.539-2.286,6.345v29.164v0.071c0,0.048,0,0.312,0,0.773c0,0.471,0.047,1.053,0.146,1.737
				c0.098,0.69,0.282,1.431,0.555,2.21c0.271,0.794,0.701,1.479,1.291,2.066c1.082,1.189,2.707,1.779,4.871,1.779
				c2.313,0,4.013-0.619,5.099-1.852c0.541-0.588,0.957-1.249,1.256-1.995c0.293-0.731,0.504-1.425,0.627-2.065
				c0.121-0.638,0.184-1.4,0.184-2.281v-0.073v-9.38h-5.168c-0.74,0-1.367-0.258-1.883-0.774c-0.518-0.517-0.775-1.144-0.775-1.887
				c0-0.685,0.258-1.285,0.775-1.802c0.516-0.519,1.143-0.781,1.883-0.781h10.334v14.475c0.053,0.197,0.064,0.617,0.039,1.256
				c-0.029,0.637-0.111,1.375-0.258,2.211c-0.545,2.709-1.602,4.926-3.176,6.645C-656.325-2.676-659.306-1.5-663.048-1.5z"/>
		</g>
	</g>
</g>
<linearGradient id="SVGID_1_" gradientUnits="userSpaceOnUse" x1="212.4815" y1="128.6169" x2="-11.6264" y2="258.0056" gradientTransform="matrix(1 0 0 -1 0 284)">
	<stop  offset="0.2163" style="stop-color:#F29C00;stop-opacity:0"/>
	<stop  offset="1" style="stop-color:#CE5C02"/>
</linearGradient>
<path fill="url(#SVGID_1_)" d="M202.143,155.853c0.008-0.057,0.011-0.116,0.012-0.175c0-0.021,0-0.042-0.001-0.063l-0.001-0.001
	c-0.001-0.035-0.01-0.067-0.013-0.102c-0.006-0.062-0.011-0.123-0.023-0.182c-0.002-0.012-0.002-0.024-0.005-0.036
	c-0.006-0.024-0.019-0.044-0.026-0.067c-0.024-0.081-0.053-0.16-0.09-0.235c-0.017-0.036-0.036-0.071-0.056-0.105
	c-0.045-0.076-0.098-0.148-0.157-0.217c-0.015-0.018-0.025-0.039-0.041-0.057c-0.013-0.014-0.027-0.029-0.041-0.043
	c-0.042-0.043-0.086-0.083-0.13-0.12L17.453,0.345c0.044,0.037,0.088,0.077,0.13,0.12c0.002,0.002,0.004,0.004,0.006,0.006
	c0.027,0.028,0.047,0.058,0.071,0.087c0.062,0.072,0.116,0.147,0.163,0.225c0.02,0.034,0.038,0.068,0.055,0.103
	c0.037,0.076,0.067,0.156,0.091,0.238c0.01,0.034,0.023,0.067,0.03,0.102c0.012,0.054,0.016,0.111,0.022,0.167
	c0.006,0.06,0.016,0.119,0.015,0.181c-0.001,0.091-0.012,0.178-0.028,0.264c-0.004,0.019-0.007,0.038-0.011,0.057
	c-0.019,0.085-0.045,0.167-0.08,0.247c-0.005,0.011-0.011,0.021-0.016,0.032c-0.031,0.067-0.069,0.131-0.11,0.194
	c-0.02,0.031-0.043,0.061-0.066,0.091c-0.05,0.065-0.1,0.13-0.162,0.191c-0.308,0.305-0.66,0.464-1.067,0.464h-5.29l-0.023,2.535
	L8.154,3.114h-5.37c-0.192,0-0.371-0.03-0.537-0.089S1.928,2.877,1.788,2.76l9.35,7.826l-0.187,20.418
	c-0.002,0.218-0.041,0.415-0.113,0.596c-0.002,0.004-0.003,0.008-0.004,0.012c-0.074,0.181-0.181,0.344-0.323,0.49
	c-0.296,0.295-0.66,0.442-1.1,0.442c-0.362,0-0.679-0.117-0.957-0.35l184.117,154.104c0.279,0.233,0.595,0.35,0.957,0.35
	c0.441,0,0.804-0.148,1.101-0.442c0.026-0.027,0.051-0.054,0.075-0.082c0.057-0.067,0.107-0.137,0.151-0.211l0,0
	c0.035-0.06,0.066-0.122,0.093-0.186l-0.002-0.002c0,0,0,0,0-0.001l0.003,0.002c0.002-0.004,0.002-0.008,0.004-0.012
	c0.001-0.003,0.002-0.005,0.003-0.008c0.022-0.055,0.042-0.111,0.057-0.169c0.019-0.07,0.033-0.142,0.042-0.217
	c0.009-0.069,0.013-0.14,0.014-0.213l0.255-27.89h5.289l0.001,0.001c0.407,0,0.759-0.158,1.067-0.464
	c0.003-0.003,0.006-0.007,0.009-0.011c0.034-0.035,0.068-0.07,0.099-0.106c0.019-0.022,0.032-0.046,0.049-0.069
	c0.025-0.033,0.05-0.066,0.072-0.1c0.012-0.019,0.028-0.036,0.04-0.055c0.025-0.043,0.045-0.088,0.066-0.132
	c0.006-0.012,0.013-0.024,0.018-0.036c0.003-0.006,0.007-0.012,0.009-0.019c0.024-0.058,0.045-0.119,0.061-0.18l0,0
	c0.004-0.016,0.006-0.032,0.01-0.048c0.004-0.018,0.007-0.036,0.011-0.055C202.131,155.913,202.139,155.884,202.143,155.853
	l-0.007-0.006v-0.001L202.143,155.853z"/>
<linearGradient id="SVGID_2_" gradientUnits="userSpaceOnUse" x1="236.5299" y1="124.4932" x2="8.8523" y2="255.943" gradientTransform="matrix(1 0 0 -1 0 284)">
	<stop  offset="0.2163" style="stop-color:#F29C00;stop-opacity:0"/>
	<stop  offset="1" style="stop-color:#CE5C02"/>
</linearGradient>
<path fill="url(#SVGID_2_)" d="M221.791,155.634L221.791,155.634L221.791,155.634c0-0.021,0-0.041-0.001-0.061
	c-0.001-0.039-0.011-0.076-0.015-0.114c-0.005-0.052-0.009-0.104-0.02-0.154c-0.002-0.011-0.002-0.024-0.004-0.035l0,0
	c-0.005-0.022-0.018-0.042-0.025-0.063c-0.023-0.078-0.051-0.154-0.088-0.228c-0.016-0.032-0.033-0.064-0.051-0.095
	c-0.045-0.076-0.099-0.15-0.161-0.221c-0.014-0.016-0.021-0.033-0.035-0.049l-0.016-0.013c-0.001-0.001-0.002-0.002-0.003-0.003
	l0.019,0.016c-0.014-0.015-0.028-0.03-0.043-0.045c-0.041-0.041-0.082-0.079-0.125-0.115L37.105,0.349
	c0.043,0.036,0.084,0.075,0.125,0.116c0.003,0.003,0.005,0.005,0.008,0.008c0.026,0.027,0.045,0.055,0.068,0.083
	c0.063,0.073,0.119,0.149,0.165,0.227c0.017,0.029,0.033,0.058,0.047,0.088c0.039,0.078,0.07,0.159,0.093,0.242
	c0.008,0.028,0.018,0.054,0.024,0.083c0.013,0.059,0.018,0.122,0.024,0.184c0.004,0.05,0.013,0.098,0.013,0.15l-0.087,9.489
	L24.846,0.355c0.04,0.034,0.08,0.071,0.119,0.11c0.032,0.032,0.055,0.067,0.083,0.101c0.058,0.068,0.11,0.139,0.154,0.211
	c0.02,0.033,0.038,0.066,0.054,0.1c0.036,0.072,0.064,0.147,0.086,0.224c0.01,0.034,0.022,0.066,0.03,0.1
	c0.011,0.05,0.015,0.102,0.02,0.154c0.006,0.058,0.015,0.114,0.015,0.174L25.27,16.533l3.706,3.102h-3.734l-0.104,11.369
	l-0.001-0.001c-0.001,0.092-0.012,0.182-0.028,0.269c-0.003,0.016-0.006,0.033-0.009,0.049c-0.038,0.173-0.107,0.336-0.207,0.489
	c-0.016,0.024-0.034,0.047-0.051,0.071c-0.05,0.068-0.103,0.135-0.167,0.198c-0.308,0.306-0.682,0.453-1.123,0.453
	c-0.353,0-0.662-0.11-0.935-0.339l184.119,154.105c0.273,0.228,0.582,0.339,0.935,0.339c0.441,0,0.815-0.147,1.123-0.453
	c0.036-0.037,0.07-0.073,0.102-0.111l-0.005-0.004c0,0,0,0,0-0.001l0.006,0.005c0.021-0.025,0.037-0.053,0.056-0.079
	c0.022-0.029,0.044-0.058,0.063-0.088c0.011-0.016,0.025-0.032,0.035-0.048l0,0c0.029-0.05,0.054-0.101,0.077-0.153
	c0.004-0.009,0.009-0.017,0.013-0.026c0.001-0.002,0.002-0.003,0.002-0.005c0.025-0.059,0.045-0.119,0.062-0.181l-0.001-0.001
	c0.005-0.016,0.006-0.034,0.01-0.05c0.006-0.027,0.011-0.055,0.016-0.082c0.004-0.022,0.01-0.043,0.013-0.066l-0.006-0.005
	c0,0,0,0,0-0.001l0.007,0.005c0.007-0.061,0.011-0.123,0.012-0.186l0.063-6.914l9.672,8.095c0.28,0.235,0.613,0.348,0.99,0.348
	c0.407,0,0.77-0.147,1.078-0.453c0.036-0.037,0.07-0.073,0.102-0.111l-0.005-0.004l0,0l0.006,0.005
	c0.021-0.025,0.037-0.052,0.056-0.078c0.022-0.029,0.044-0.059,0.064-0.089c0.011-0.016,0.025-0.031,0.034-0.048
	c0.029-0.05,0.054-0.101,0.077-0.153c0.004-0.009,0.009-0.017,0.013-0.026c0.001-0.002,0.002-0.003,0.002-0.005
	c0.025-0.059,0.045-0.119,0.062-0.181c0.005-0.019,0.007-0.04,0.012-0.059c0.005-0.021,0.009-0.042,0.012-0.063
	c0.005-0.026,0.012-0.05,0.015-0.076c0.007-0.061,0.011-0.123,0.012-0.186L221.791,155.634L221.791,155.634L221.791,155.634z"/>
<g>
	<g>
		
			<linearGradient id="SVGID_3_" gradientUnits="userSpaceOnUse" x1="257.9563" y1="124.6352" x2="32.3737" y2="254.8754" gradientTransform="matrix(1 0 0 -1 0 284)">
			<stop  offset="0.2163" style="stop-color:#F29C00;stop-opacity:0"/>
			<stop  offset="1" style="stop-color:#CE5C02"/>
		</linearGradient>
		<path fill="url(#SVGID_3_)" d="M243.144,155.621c0-0.015,0-0.03,0-0.044l-0.004-0.004v-0.001l0.004,0.004
			c-0.001-0.04-0.011-0.078-0.015-0.117c-0.005-0.049-0.008-0.098-0.018-0.145c-0.002-0.009-0.001-0.019-0.004-0.028l-0.001-0.001
			c-0.004-0.018-0.015-0.034-0.02-0.051c-0.024-0.086-0.056-0.17-0.097-0.25c-0.016-0.032-0.034-0.063-0.052-0.094
			c-0.047-0.077-0.102-0.152-0.164-0.225c-0.014-0.016-0.021-0.033-0.036-0.049l-0.017-0.014c-0.001-0.001-0.001-0.002-0.002-0.003
			l0.02,0.017c-0.015-0.016-0.03-0.032-0.046-0.048c-0.039-0.039-0.079-0.076-0.12-0.11L58.453,0.354
			c0.041,0.035,0.081,0.071,0.12,0.111c0,0,0,0,0.001,0.001c0.031,0.032,0.055,0.066,0.083,0.099
			c0.062,0.072,0.117,0.146,0.164,0.223c0.018,0.03,0.035,0.06,0.05,0.09c0.041,0.08,0.072,0.163,0.097,0.248
			c0.008,0.028,0.019,0.054,0.025,0.082c0.011,0.051,0.014,0.104,0.02,0.156c0.005,0.051,0.014,0.102,0.014,0.155
			c0,0.004,0,0.007,0,0.011c0,0.009-0.002,0.017-0.002,0.026C59.023,1.64,59.014,1.722,59,1.801
			c-0.005,0.028-0.01,0.057-0.016,0.084c-0.02,0.087-0.044,0.171-0.078,0.252c-0.003,0.008-0.008,0.015-0.011,0.023
			c-0.031,0.071-0.07,0.139-0.113,0.205c-0.022,0.034-0.046,0.067-0.071,0.099c-0.049,0.064-0.098,0.128-0.157,0.187
			c-0.308,0.305-0.682,0.464-1.112,0.464L241.56,157.219c0.429,0,0.804-0.158,1.112-0.464c0.037-0.036,0.071-0.073,0.103-0.111
			l-0.001-0.001c0.021-0.025,0.036-0.052,0.055-0.077c0.024-0.031,0.047-0.063,0.069-0.096c0.01-0.016,0.024-0.03,0.033-0.046
			l-0.005-0.004c0,0,0,0,0-0.001l0.006,0.005c0.033-0.056,0.062-0.115,0.088-0.174c0.001-0.003,0.003-0.005,0.004-0.008
			c0.001-0.002,0.003-0.005,0.003-0.007c0.025-0.061,0.047-0.124,0.064-0.189l-0.006-0.005v-0.001l0.005,0.004
			c0.005-0.019,0.007-0.039,0.011-0.058c0.006-0.027,0.011-0.054,0.016-0.081c0.004-0.024,0.011-0.047,0.014-0.071l0,0
			c0.007-0.058,0.01-0.119,0.012-0.18c0-0.008,0.002-0.015,0.002-0.023C243.145,155.628,243.144,155.625,243.144,155.621z
			 M47.268,16.533l3.706,3.102H47.24l-0.09,9.795l3.706,3.102h-5.26c-0.377,0-0.71-0.113-0.99-0.347l184.118,154.103
			c0.14,0.118,0.293,0.205,0.459,0.262c0.165,0.058,0.343,0.086,0.531,0.087l-0.002-0.001c0.001,0,0.001,0,0.002,0h11.575
			l0.001,0.001c0.43,0,0.804-0.147,1.112-0.453c0.007-0.007,0.012-0.016,0.02-0.023c0.03-0.031,0.06-0.061,0.087-0.094
			c0.017-0.02,0.029-0.041,0.044-0.062c0.029-0.037,0.056-0.075,0.081-0.113c0.011-0.017,0.025-0.032,0.035-0.049
			c0.023-0.038,0.04-0.078,0.059-0.117c0.009-0.019,0.02-0.037,0.028-0.056c0.002-0.005,0.005-0.009,0.007-0.013l-0.002-0.002
			c0,0,0,0,0-0.001l0.003,0.002c0.024-0.058,0.045-0.119,0.061-0.18l-0.001-0.001c0.004-0.013,0.005-0.027,0.008-0.041
			c0.006-0.024,0.01-0.048,0.014-0.072c0.005-0.027,0.012-0.053,0.016-0.08l-0.006-0.005l0,0l0.006,0.005
			c0.008-0.057,0.011-0.116,0.012-0.175c0-0.021,0-0.042-0.001-0.063l0,0c-0.001-0.035-0.01-0.068-0.013-0.102
			c-0.006-0.062-0.011-0.125-0.024-0.185c-0.002-0.011-0.002-0.023-0.004-0.034l-0.008-0.006v-0.001l0.008,0.007
			c-0.006-0.024-0.019-0.045-0.026-0.068c-0.023-0.081-0.053-0.159-0.09-0.235c-0.017-0.036-0.036-0.071-0.056-0.105
			c-0.045-0.076-0.098-0.148-0.157-0.217c-0.016-0.018-0.025-0.039-0.041-0.057l-0.018-0.015l0,0l0.018,0.015
			c-0.013-0.014-0.027-0.029-0.041-0.043c-0.039-0.039-0.079-0.076-0.12-0.11l-10.953-9.167l0.009-0.982h7.562l0.001,0.001
			c0.429,0,0.792-0.147,1.089-0.453c0.001-0.001,0.001-0.003,0.003-0.004c0.027-0.028,0.053-0.057,0.078-0.086l-0.013-0.011l0,0
			l0.013,0.011c0.06-0.071,0.113-0.145,0.159-0.222l-0.02-0.016l0.001-0.001l0.02,0.017c0.035-0.059,0.066-0.121,0.092-0.184
			c0.001-0.002,0.002-0.003,0.002-0.005l0,0c0.025-0.061,0.046-0.123,0.063-0.186c0.017-0.066,0.03-0.133,0.039-0.202l-0.021-0.018
			c0,0,0,0,0-0.001l0.022,0.018c0.007-0.061,0.011-0.123,0.012-0.187c0-0.024,0-0.048-0.001-0.071l-0.013-0.011v-0.001l0.013,0.011
			c-0.003-0.119-0.017-0.232-0.043-0.34l-0.001-0.001c-0.01-0.044-0.033-0.083-0.048-0.125c-0.014-0.041-0.029-0.081-0.046-0.12
			c-0.068-0.154-0.152-0.301-0.274-0.432c-0.006-0.006-0.012-0.013-0.018-0.019c-0.044-0.046-0.089-0.089-0.136-0.128l-8.446-7.069
			l0.061-6.686h10.05L57.441,3.114h-10.05L47.268,16.533z"/>
	</g>
</g>
<linearGradient id="SVGID_4_" gradientUnits="userSpaceOnUse" x1="238.6521" y1="51.9268" x2="-10.4157" y2="195.7262" gradientTransform="matrix(1 0 0 -1 0 284)">
	<stop  offset="0.2163" style="stop-color:#F29C00;stop-opacity:0"/>
	<stop  offset="1" style="stop-color:#CE5C02"/>
</linearGradient>
<path fill="url(#SVGID_4_)" d="M218.783,203.859L218.783,203.859c0-0.042,0-0.083-0.001-0.124l0,0
	c-0.002-0.083-0.023-0.16-0.031-0.241c-0.012-0.111-0.02-0.224-0.043-0.331c-0.004-0.02-0.003-0.043-0.008-0.063l-0.015-0.012
	c0-0.001-0.001-0.002-0.001-0.002l0.016,0.014c-0.012-0.051-0.042-0.096-0.056-0.145c-0.049-0.166-0.11-0.328-0.188-0.485
	c-0.038-0.075-0.078-0.15-0.122-0.223c-0.092-0.153-0.202-0.3-0.323-0.444c-0.036-0.043-0.057-0.09-0.096-0.132l-0.005-0.004
	c-0.029-0.031-0.059-0.062-0.09-0.094c-0.08-0.081-0.162-0.157-0.247-0.228L33.455,47.24c0.085,0.071,0.168,0.147,0.248,0.228
	c0.069,0.069,0.119,0.145,0.18,0.217c0.129,0.151,0.243,0.305,0.34,0.466c0.04,0.067,0.077,0.135,0.111,0.203
	c0.085,0.169,0.151,0.344,0.202,0.523c0.017,0.059,0.04,0.115,0.053,0.175c0.026,0.117,0.035,0.24,0.047,0.362
	c0.01,0.109,0.029,0.215,0.029,0.328c0,0.004,0,0.008,0,0.012c0,0.01-0.002,0.018-0.002,0.028c-0.003,0.189-0.025,0.371-0.055,0.548
	c-0.01,0.059-0.021,0.117-0.034,0.174c-0.041,0.183-0.092,0.361-0.163,0.531c-0.007,0.017-0.018,0.033-0.025,0.05
	c-0.067,0.151-0.15,0.296-0.24,0.437c-0.047,0.073-0.1,0.143-0.153,0.213c-0.103,0.135-0.206,0.27-0.332,0.396
	c-0.651,0.657-1.445,0.974-2.372,0.974h-21.4L9.628,81.71l7.901,6.613H9.567l-0.191,20.88l7.901,6.613H6.06
	c-0.818,0-1.528-0.256-2.131-0.76L188.047,269.16c0.602,0.504,1.313,0.76,2.131,0.76l0,0h24.655l0,0
	c0.927,0,1.721-0.317,2.383-0.974c0.074-0.075,0.145-0.152,0.211-0.229l0,0c0.044-0.052,0.075-0.108,0.116-0.161
	c0.054-0.07,0.106-0.141,0.154-0.214c0.024-0.036,0.055-0.07,0.077-0.107c0.057-0.096,0.103-0.196,0.149-0.295
	c0.011-0.025,0.026-0.048,0.037-0.073c0.004-0.01,0.01-0.019,0.014-0.028c0.052-0.125,0.095-0.253,0.13-0.383
	c0.009-0.035,0.013-0.072,0.021-0.107c0.01-0.044,0.018-0.089,0.026-0.133c0.011-0.058,0.026-0.114,0.034-0.173
	c0.015-0.125,0.024-0.253,0.025-0.383c0.001-0.047,0-0.094-0.001-0.141l0,0c-0.002-0.077-0.022-0.146-0.028-0.22
	c-0.012-0.136-0.024-0.272-0.052-0.402c-0.006-0.027-0.004-0.056-0.011-0.082l-0.017-0.014c0-0.001,0-0.002-0.001-0.002l0.019,0.016
	c-0.012-0.052-0.042-0.096-0.056-0.147c-0.05-0.172-0.112-0.338-0.19-0.498c-0.036-0.075-0.074-0.149-0.116-0.221
	c-0.098-0.166-0.215-0.325-0.345-0.478c-0.032-0.038-0.051-0.081-0.085-0.118c-0.022-0.023-0.044-0.046-0.066-0.069
	c-0.076-0.076-0.154-0.147-0.234-0.214l-23.358-19.55l0.019-2.09h16.097l0.001,0.001c0.927,0,1.698-0.317,2.326-0.974
	c0.006-0.006,0.01-0.013,0.016-0.02c0.055-0.057,0.108-0.115,0.158-0.173c0.045-0.053,0.077-0.111,0.118-0.165
	c0.058-0.077,0.117-0.154,0.167-0.233c0.016-0.025,0.038-0.049,0.053-0.074l-0.001-0.001c0.061-0.102,0.11-0.207,0.158-0.313
	c0.017-0.037,0.037-0.072,0.052-0.109c0.05-0.122,0.093-0.246,0.127-0.374c0.009-0.035,0.013-0.072,0.021-0.108
	c0.013-0.057,0.024-0.115,0.034-0.173c0.008-0.048,0.022-0.095,0.028-0.144c0.015-0.118,0.022-0.239,0.024-0.361
	c0-0.01,0.003-0.019,0.003-0.028c0-0.005-0.001-0.009-0.001-0.013c0.001-0.046,0-0.092-0.001-0.137
	c-0.002-0.069-0.02-0.131-0.026-0.199c-0.012-0.149-0.027-0.297-0.056-0.438c-0.006-0.031-0.005-0.066-0.012-0.096l-0.018-0.015
	v-0.001l0.019,0.016c-0.012-0.049-0.039-0.09-0.052-0.138c-0.05-0.174-0.113-0.341-0.191-0.502
	c-0.035-0.072-0.068-0.144-0.108-0.213c-0.103-0.177-0.225-0.346-0.364-0.506c-0.025-0.029-0.04-0.064-0.066-0.092l0.001,0.001
	c-0.013-0.014-0.027-0.028-0.04-0.042c-0.096-0.103-0.195-0.197-0.298-0.283l-17.977-15.046l0.131-14.26h21.397l0.001,0.001
	c0.927,0,1.722-0.317,2.372-0.974c0.077-0.077,0.15-0.156,0.219-0.237l-0.012-0.01c0,0,0,0,0-0.001l0.012,0.01
	c0.045-0.053,0.078-0.111,0.119-0.166c0.049-0.066,0.099-0.131,0.143-0.199c0.022-0.034,0.051-0.065,0.071-0.099l0.001,0.001
	c0.072-0.123,0.135-0.25,0.19-0.38c0.001-0.003,0.003-0.006,0.005-0.009c0.002-0.004,0.004-0.008,0.006-0.012l-0.002-0.002v-0.001
	l0.002,0.001c0.054-0.129,0.099-0.263,0.136-0.4l0,0c0.012-0.044,0.016-0.091,0.026-0.135c0.011-0.05,0.021-0.101,0.03-0.153
	c0.009-0.053,0.024-0.105,0.031-0.159l0,0C218.772,204.149,218.782,204.006,218.783,203.859
	C218.783,203.86,218.783,203.859,218.783,203.859L218.783,203.859z"/>
<g>
	<g>
		
			<linearGradient id="SVGID_5_" gradientUnits="userSpaceOnUse" x1="278.7458" y1="48.5675" x2="34.425" y2="189.6262" gradientTransform="matrix(1 0 0 -1 0 284)">
			<stop  offset="0.2163" style="stop-color:#F29C00;stop-opacity:0"/>
			<stop  offset="1" style="stop-color:#CE5C02"/>
		</linearGradient>
		<path fill="url(#SVGID_5_)" d="M247.168,202.558c-0.002-0.061-0.01-0.114-0.016-0.169c-0.003-0.029-0.005-0.065-0.009-0.094
			c-0.015-0.094-0.034-0.19-0.059-0.304l0,0c0-0.001-0.001-0.001-0.001-0.001c-0.058-0.108-0.124-0.199-0.2-0.28
			c-0.011-0.012-0.023-0.023-0.034-0.035c-0.089-0.102-0.167-0.204-0.234-0.328l-0.369-0.465h-0.001
			c-0.048-0.049-0.096-0.094-0.144-0.135L61.983,46.642c0.048,0.041,0.097,0.087,0.145,0.136l0.369,0.464
			c0.066,0.124,0.145,0.226,0.234,0.328c0.09,0.091,0.168,0.193,0.235,0.317c0.025,0.115,0.044,0.21,0.059,0.305
			c0.005,0.03,0.005,0.063,0.009,0.093c0.009,0.081,0.017,0.161,0.016,0.259l184.119,154.104
			C247.169,202.617,247.169,202.587,247.168,202.558z M259.667,267.601L259.667,267.601c-0.005-0.186-0.027-0.375-0.065-0.568
			l-12.907-10.803l0,0l12.907,10.803l-12.434-64.385L63.05,48.544l4.312,22.328l-7.533-6.305l-6.517,31.501l7.238,6.058h-8.503
			l-2.53,12.105c-0.028,0.148-0.072,0.289-0.122,0.427c-0.011,0.031-0.019,0.063-0.032,0.093c-0.056,0.139-0.124,0.272-0.203,0.401
			c-0.033,0.053-0.073,0.102-0.109,0.153c-0.058,0.081-0.116,0.162-0.183,0.238c-0.131,0.148-0.275,0.29-0.442,0.421
			c-0.592,0.465-1.261,0.691-2.007,0.691h-0.553c-0.228-0.051-0.44-0.128-0.641-0.223c-0.011-0.005-0.024-0.007-0.035-0.012
			c-0.21-0.103-0.406-0.229-0.585-0.38l184.117,154.104c0.36,0.301,0.782,0.507,1.261,0.615h0.553l0.001,0.001
			c0.746,0,1.415-0.227,2.007-0.691c0.166-0.13,0.31-0.272,0.44-0.42c0.012-0.014,0.029-0.025,0.041-0.039
			c0.057-0.067,0.102-0.14,0.151-0.211c0.033-0.047,0.07-0.091,0.099-0.139c0.007-0.012,0.017-0.022,0.024-0.034l0,0
			c0.065-0.109,0.121-0.222,0.17-0.339c0.005-0.011,0.007-0.023,0.012-0.034c0.011-0.026,0.018-0.054,0.027-0.081
			c0.028-0.076,0.057-0.15,0.078-0.229c0.018-0.068,0.034-0.137,0.047-0.207l2.53-12.105h1.992l16.466,13.782
			c0.022,0.018,0.045,0.037,0.068,0.055c0.583,0.465,1.214,0.691,1.893,0.691h0.565c0.188-0.042,0.366-0.102,0.538-0.174
			c0.06-0.025,0.115-0.058,0.172-0.086c0.109-0.054,0.218-0.11,0.32-0.177c0.063-0.041,0.122-0.088,0.183-0.134
			c0.09-0.068,0.178-0.139,0.261-0.218c0.059-0.055,0.116-0.113,0.172-0.174c0.035-0.038,0.075-0.07,0.109-0.11
			c0.07-0.083,0.138-0.17,0.202-0.261c0.003-0.005,0.007-0.008,0.011-0.013c0.002-0.003,0.003-0.005,0.004-0.008
			c0.043-0.063,0.085-0.126,0.123-0.19c0.057-0.096,0.102-0.195,0.148-0.294c0.012-0.026,0.027-0.05,0.038-0.076
			c0.004-0.009,0.01-0.018,0.014-0.027c0.05-0.121,0.092-0.245,0.126-0.37l-0.011-0.009c0,0,0,0,0-0.001l0.011,0.01
			c0.01-0.039,0.014-0.078,0.023-0.117c0.008-0.036,0.014-0.072,0.021-0.109c0.01-0.054,0.024-0.106,0.031-0.16l-0.001-0.001
			c0.012-0.096,0.011-0.193,0.014-0.291c0.001-0.043,0.007-0.085,0.006-0.128C259.665,267.627,259.667,267.615,259.667,267.601
			L259.667,267.601C259.667,267.602,259.667,267.602,259.667,267.601L259.667,267.601z"/>
	</g>
</g>
<g>
	<g>
		
			<linearGradient id="SVGID_6_" gradientUnits="userSpaceOnUse" x1="317.1122" y1="53.478" x2="73.6256" y2="194.0551" gradientTransform="matrix(1 0 0 -1 0 284)">
			<stop  offset="0.2163" style="stop-color:#F29C00;stop-opacity:0"/>
			<stop  offset="1" style="stop-color:#CE5C02"/>
		</linearGradient>
		<path fill="url(#SVGID_6_)" d="M279.246,208.219l14.342,12.004c0.367,0.307,0.869,0.505,1.504,0.588l-0.001-0.001l0,0
			l-15.392-12.883l15.393,12.883c0.219,0.035,0.425,0.052,0.618,0.052c0.562,0,1.009-0.144,1.34-0.414l0.001,0.001
			c0.218-0.189,0.422-0.395,0.611-0.616c0.001-0.002,0.003-0.003,0.004-0.005c0.184-0.216,0.352-0.448,0.505-0.693c0,0,0,0,0-0.001
			l0.001,0.001c0.116-0.279,0.225-0.586,0.33-0.907c0.029-0.088,0.055-0.182,0.083-0.274c0.045-0.148,0.093-0.289,0.135-0.446
			l-0.001-0.001c0.045-0.166,0.087-0.337,0.128-0.512l-11.996-10.04h0.001l11.994,10.039v-0.001l0.001,0.001
			c0.001-0.001,0.001-0.005,0.002-0.006l0.001-0.003l0,0c0,0,0,0,0-0.001l0.001,0.001c0.006-0.017,0.013-0.038,0.02-0.063
			l-0.001-0.001c0.002-0.006,0.003-0.021,0.005-0.028c0.016-0.063,0.031-0.149,0.046-0.261c0.001-0.007,0.002-0.009,0.003-0.016
			c0-0.002,0.001-0.006,0.001-0.009c0.029-0.229,0.054-0.544,0.07-0.96c0.016-0.312,0.017-0.657,0.008-1.021
			c-0.001-0.024,0.001-0.044,0.001-0.068l-0.002-0.002v-0.001l0.003,0.003c-0.001-0.03-0.004-0.065-0.005-0.096
			c-0.006-0.179-0.016-0.369-0.028-0.561c-0.005-0.074-0.007-0.145-0.013-0.221c-0.02-0.28-0.044-0.569-0.075-0.875
			c-0.029-0.433-0.077-0.855-0.137-1.269c-0.016-0.112-0.04-0.219-0.059-0.329c-0.049-0.294-0.102-0.586-0.167-0.87
			c-0.008-0.036-0.013-0.074-0.021-0.11l-0.01-0.008l0,0l0.01,0.008c-0.044-0.185-0.099-0.363-0.149-0.544
			c-0.033-0.119-0.062-0.24-0.098-0.357c-0.104-0.337-0.218-0.668-0.346-0.992c-0.553-1.37-1.288-2.582-2.205-3.635
			c-0.071-0.081-0.143-0.16-0.216-0.239l-0.009-0.007c-0.031-0.033-0.067-0.06-0.098-0.093c-0.321-0.337-0.652-0.66-1.004-0.956
			L110.257,49.298c0.35,0.292,0.678,0.613,0.996,0.947c0.11,0.115,0.223,0.226,0.33,0.347l0.001,0.001
			c0.229,0.263,0.447,0.536,0.654,0.82c0.62,0.849,1.137,1.788,1.551,2.815c0.128,0.322,0.241,0.652,0.344,0.987
			c0.039,0.127,0.071,0.259,0.107,0.388c0.057,0.207,0.114,0.414,0.163,0.626c0.063,0.273,0.112,0.553,0.16,0.834
			c0.022,0.127,0.049,0.25,0.068,0.379c0.06,0.411,0.106,0.829,0.135,1.258c0.031,0.304,0.055,0.592,0.074,0.87
			c0.006,0.08,0.008,0.153,0.013,0.23c0.012,0.194,0.022,0.386,0.027,0.567c0.002,0.061,0.002,0.117,0.003,0.176
			c0.008,0.356,0.007,0.693-0.009,0.998c-0.002,0.05-0.005,0.086-0.007,0.134l-8.919-7.465c-1.25-1.046-3.067-1.569-5.451-1.569
			c-2.86,0-5.004,0.815-6.443,2.423l184.118,154.103C278.493,208.811,278.855,208.498,279.246,208.219z M300.836,253.758
			c0.002-0.324,0-0.646-0.009-0.965c-0.008-0.286-0.027-0.567-0.044-0.849c-0.006-0.102-0.009-0.206-0.016-0.307
			c-0.042-0.588-0.107-1.166-0.188-1.736c-0.019-0.135-0.041-0.268-0.062-0.402c-0.091-0.57-0.195-1.134-0.326-1.686
			c-0.001-0.006-0.003-0.012-0.005-0.018c-0.007-0.031-0.017-0.06-0.024-0.091c-0.131-0.538-0.285-1.065-0.454-1.585
			c-0.038-0.118-0.076-0.237-0.116-0.355c-0.181-0.528-0.38-1.047-0.6-1.557c-0.039-0.091-0.083-0.181-0.124-0.271
			c-0.208-0.463-0.433-0.919-0.674-1.367c-0.044-0.081-0.084-0.164-0.129-0.244c-0.271-0.488-0.565-0.965-0.876-1.434
			c-0.069-0.104-0.14-0.207-0.211-0.31c-0.327-0.477-0.668-0.947-1.037-1.404c-0.001-0.001-0.003-0.003-0.004-0.004
			c-0.386-0.475-0.784-0.928-1.188-1.37c-0.046-0.051-0.09-0.107-0.136-0.157l0,0c-0.074-0.08-0.153-0.152-0.227-0.23
			c-0.297-0.314-0.598-0.619-0.903-0.916c-0.12-0.116-0.238-0.234-0.359-0.348c-0.418-0.393-0.841-0.776-1.275-1.138l-14.301-11.969
			c-0.093-0.142-0.192-0.282-0.279-0.427c-0.342-0.575-0.634-1.172-0.877-1.795c-0.146-0.371-0.262-0.762-0.363-1.163
			c-0.035-0.14-0.064-0.283-0.094-0.426c-0.044-0.214-0.085-0.43-0.117-0.652c-0.023-0.157-0.041-0.316-0.058-0.477
			c-0.023-0.227-0.041-0.459-0.052-0.694c-0.012-0.242-0.025-0.482-0.023-0.732c0-0.016-0.001-0.031,0-0.047l0.003-0.283
			c0-0.005,0-0.011-0.001-0.016c-0.018-0.255-0.003-0.518,0.005-0.78c0.006-0.209,0.01-0.418,0.033-0.631
			c0.038-0.357,0.085-0.716,0.165-1.085l0,0c0.055-0.286,0.141-0.601,0.236-0.922c0.032-0.11,0.065-0.22,0.102-0.334
			c0.103-0.319,0.22-0.65,0.357-1c0.01-0.026,0.018-0.05,0.029-0.077c0.002-0.006,0.005-0.012,0.007-0.018
			c0.028-0.069,0.063-0.133,0.092-0.201c0.091-0.207,0.192-0.408,0.303-0.603c0.039-0.069,0.08-0.136,0.121-0.204
			c0.173-0.281,0.363-0.553,0.581-0.811c0.142-0.169,0.292-0.335,0.454-0.496L94.055,55.066c-0.153,0.152-0.298,0.308-0.434,0.468
			c-0.008,0.009-0.013,0.019-0.02,0.028c-0.217,0.258-0.406,0.529-0.579,0.809c-0.019,0.031-0.046,0.059-0.065,0.091
			c-0.022,0.037-0.037,0.078-0.058,0.116c-0.114,0.2-0.217,0.407-0.31,0.619c-0.015,0.035-0.036,0.066-0.051,0.101
			c-0.014,0.033-0.028,0.066-0.041,0.099c0,0,0,0.001-0.001,0.001c-0.001,0.002-0.001,0.003-0.002,0.005
			c-0.153,0.385-0.278,0.746-0.39,1.094c-0.031,0.097-0.059,0.192-0.087,0.286c-0.03,0.102-0.068,0.211-0.095,0.31
			c-0.059,0.222-0.109,0.435-0.148,0.638c-0.066,0.306-0.118,0.607-0.156,0.905c-0.008,0.061-0.003,0.119-0.009,0.18
			c-0.023,0.219-0.027,0.433-0.033,0.647c-0.004,0.145-0.026,0.294-0.023,0.437c0.003,0.116,0.009,0.231,0.017,0.345l-0.002,0.283
			v0.001l-0.001-0.001c0,0.014,0.001,0.027,0.001,0.04c-0.001,0.159,0,0.317,0.004,0.473c0.003,0.091,0.016,0.175,0.02,0.265
			c0.011,0.236,0.029,0.468,0.052,0.696c0.016,0.16,0.035,0.318,0.057,0.474c0.032,0.224,0.073,0.442,0.118,0.657
			c0.02,0.096,0.03,0.198,0.053,0.293c0.011,0.044,0.029,0.083,0.04,0.127c0.101,0.402,0.217,0.793,0.363,1.165
			c0.486,1.246,1.165,2.39,2.06,3.454c0.006,0.007,0.014,0.014,0.02,0.021c0.191,0.228,0.391,0.454,0.6,0.681
			c0.14,0.151,0.299,0.3,0.446,0.451c0.123,0.126,0.244,0.251,0.373,0.376c0.426,0.413,0.871,0.824,1.357,1.231l14.997,12.552
			c0.247,0.32,0.491,0.643,0.718,0.972c0.08,0.116,0.16,0.231,0.237,0.348c0.303,0.459,0.591,0.925,0.856,1.402
			c0.054,0.098,0.104,0.198,0.156,0.296c0.228,0.424,0.44,0.855,0.638,1.293c0.049,0.109,0.102,0.217,0.15,0.327
			c0.214,0.496,0.407,1.001,0.584,1.514c0.047,0.137,0.091,0.275,0.135,0.413c0.157,0.487,0.3,0.98,0.424,1.482
			c0.015,0.06,0.033,0.118,0.047,0.178c0,0.001,0.001,0.003,0.001,0.004c0.128,0.54,0.23,1.091,0.32,1.648
			c0.025,0.154,0.05,0.309,0.072,0.465c0.045,0.316,0.072,0.64,0.104,0.962l-13.127-10.987c-0.24-0.2-0.484-0.397-0.733-0.592
			c-1.482-1.144-3.043-2.31-4.705-3.499c-1.482-1.053-2.976-2.174-4.491-3.352c-0.256-0.2-0.507-0.404-0.755-0.611l23.902,20.005
			c0.003,0.048,0.005,0.096,0.007,0.144c0.032,0.561,0.052,1.128,0.049,1.705c0,0.034,0.001,0.067,0.001,0.102
			c0,0.041-0.004,0.079-0.004,0.12c-0.008,0.579-0.041,1.138-0.089,1.685c-0.013,0.154-0.027,0.308-0.043,0.459
			c-0.062,0.561-0.141,1.107-0.246,1.633c-0.022,0.111-0.051,0.217-0.075,0.326c-0.081,0.37-0.181,0.724-0.284,1.076
			c-0.109,0.373-0.234,0.733-0.367,1.085c-0.128,0.337-0.247,0.681-0.396,0.999c-0.003,0.007-0.006,0.014-0.009,0.021
			c-0.165,0.351-0.351,0.678-0.534,1.008c-0.084,0.152-0.159,0.317-0.247,0.465c-0.028,0.048-0.061,0.09-0.089,0.137
			c-0.231,0.38-0.476,0.744-0.732,1.093c-0.094,0.128-0.193,0.25-0.291,0.374c-0.213,0.271-0.432,0.534-0.662,0.785
			c-0.094,0.104-0.188,0.208-0.285,0.309c-0.325,0.336-0.661,0.66-1.017,0.958c-0.715,0.599-1.478,1.118-2.279,1.58l-19.92-16.673
			c0.084,0.071,0.166,0.146,0.245,0.227c0.069,0.069,0.119,0.147,0.179,0.22c0.109,0.131,0.209,0.266,0.293,0.409
			c0.044,0.074,0.081,0.151,0.118,0.228c0.068,0.142,0.123,0.29,0.167,0.444c0.024,0.084,0.052,0.166,0.07,0.253
			c0.026,0.126,0.038,0.259,0.05,0.392c0.011,0.125,0.03,0.245,0.029,0.376c0,0.018,0.002,0.033,0.001,0.05
			c-0.002,0.234-0.001,0.464,0.006,0.688c0.003,0.115,0.018,0.214,0.023,0.327c0.013,0.279,0.033,0.549,0.058,0.812
			c0.02,0.206,0.042,0.409,0.07,0.604c0.036,0.253,0.08,0.494,0.128,0.731c0.023,0.111,0.035,0.235,0.06,0.342
			c0.023,0.095,0.052,0.182,0.077,0.274c0.026,0.098,0.053,0.195,0.081,0.289c0.095,0.313,0.199,0.615,0.321,0.894
			c0.004,0.009,0.006,0.019,0.01,0.027c0.18,0.406,0.383,0.774,0.596,1.124c0.05,0.083,0.101,0.164,0.153,0.243
			c0.22,0.335,0.453,0.649,0.707,0.926c0.004,0.004,0.007,0.01,0.011,0.015c0.178,0.193,0.365,0.371,0.56,0.534l9.948,8.326
			c-1.091,0.188-2.185,0.291-3.285,0.291c-4.341,0-7.993-1.234-10.943-3.725l184.117,154.105c2.951,2.491,6.602,3.725,10.943,3.725
			c2.046,0,4.073-0.329,6.091-0.974c2.03-0.645,3.836-1.642,5.431-2.978c0.359-0.301,0.697-0.627,1.024-0.966
			c0.091-0.094,0.179-0.193,0.268-0.29c0.111-0.122,0.228-0.237,0.335-0.363l-0.017-0.014l0,0l0.017,0.014
			c0.121-0.142,0.23-0.298,0.346-0.446c0.092-0.118,0.187-0.233,0.276-0.355c0.268-0.365,0.524-0.743,0.765-1.141
			c0.019-0.031,0.04-0.058,0.058-0.089c0.002-0.004,0.005-0.007,0.007-0.01l0,0c0.278-0.467,0.537-0.957,0.778-1.469
			c0.088-0.188,0.173-0.379,0.254-0.573c0.061-0.148,0.101-0.314,0.158-0.466c0.129-0.343,0.25-0.692,0.357-1.054
			c0.035-0.12,0.085-0.227,0.118-0.349l-0.021-0.018c0,0,0,0,0-0.001l0.022,0.019c0.069-0.257,0.124-0.525,0.181-0.792
			c0.019-0.086,0.041-0.168,0.058-0.255c0.087-0.435,0.162-0.879,0.22-1.339l0,0c0.014-0.109,0.019-0.223,0.031-0.333
			c0.015-0.138,0.027-0.278,0.039-0.417c0.051-0.575,0.087-1.162,0.094-1.771c0-0.02,0.003-0.038,0.003-0.058
			C300.838,253.79,300.836,253.775,300.836,253.758z"/>
	</g>
</g>
<g>
	<g>
		
			<linearGradient id="SVGID_7_" gradientUnits="userSpaceOnUse" x1="354.3953" y1="60.4117" x2="108.4642" y2="202.4002" gradientTransform="matrix(1 0 0 -1 0 284)">
			<stop  offset="0.2163" style="stop-color:#F29C00;stop-opacity:0"/>
			<stop  offset="1" style="stop-color:#CE5C02"/>
		</linearGradient>
		<path fill="url(#SVGID_7_)" d="M344.08,203.949L344.08,203.949c0.001-0.048,0-0.097-0.001-0.145l-0.011-0.009l0,0l0.011,0.009
			c-0.002-0.076-0.021-0.145-0.028-0.219c-0.012-0.136-0.024-0.272-0.051-0.401c-0.006-0.03-0.005-0.064-0.012-0.094l0,0
			c-0.012-0.051-0.041-0.095-0.055-0.145c-0.048-0.166-0.108-0.327-0.183-0.481c-0.036-0.075-0.074-0.149-0.116-0.221
			c-0.093-0.158-0.204-0.309-0.327-0.455c-0.034-0.04-0.054-0.086-0.09-0.125l-0.039-0.033l0,0l0.039,0.033
			c-0.028-0.03-0.057-0.06-0.086-0.09c-0.081-0.081-0.164-0.157-0.249-0.228L158.763,47.24c0.084,0.071,0.167,0.147,0.249,0.228l0,0
			c0.068,0.069,0.117,0.146,0.178,0.218c0.121,0.144,0.231,0.292,0.323,0.448c0.044,0.075,0.083,0.152,0.121,0.23
			c0.073,0.151,0.131,0.307,0.178,0.469c0.024,0.083,0.053,0.164,0.07,0.25c0.026,0.127,0.038,0.26,0.05,0.393
			c0.011,0.123,0.031,0.242,0.03,0.37c-0.002,0.191-0.025,0.374-0.057,0.554c-0.008,0.047-0.017,0.094-0.027,0.14
			c-0.04,0.177-0.091,0.351-0.163,0.518c-0.008,0.019-0.02,0.038-0.029,0.057c-0.065,0.144-0.145,0.282-0.234,0.418
			c-0.044,0.067-0.092,0.132-0.141,0.197c-0.104,0.138-0.211,0.275-0.342,0.404c-0.661,0.646-1.422,0.974-2.292,0.974
			l184.118,154.104c0,0,0,0,0.001,0l0,0c0.87,0,1.63-0.329,2.292-0.974c0.08-0.08,0.156-0.162,0.227-0.245l-0.012-0.01l0,0
			l0.012,0.01c0.043-0.051,0.073-0.105,0.112-0.157c0.05-0.066,0.1-0.133,0.144-0.201c0.024-0.037,0.055-0.071,0.078-0.108l0,0
			c0.057-0.096,0.103-0.196,0.148-0.295c0.011-0.025,0.026-0.048,0.037-0.073c0.003-0.007,0.007-0.013,0.01-0.019
			c0.051-0.123,0.094-0.25,0.129-0.379c0.01-0.037,0.014-0.077,0.022-0.114c0.011-0.047,0.019-0.095,0.028-0.142
			c0.01-0.053,0.024-0.105,0.031-0.159l-0.013-0.011v-0.001l0.013,0.011c0.016-0.127,0.024-0.256,0.026-0.388
			C344.08,203.952,344.08,203.951,344.08,203.949C344.08,203.95,344.08,203.949,344.08,203.949z M145.379,58.515l-6.461-5.408
			h-11.44c-0.827,0-1.528-0.255-2.127-0.756l19.932,16.683l-0.398,43.521c0,0.009-0.002,0.018-0.002,0.027
			c-0.003,0.191-0.024,0.374-0.054,0.552c-0.01,0.057-0.02,0.113-0.033,0.169c-0.04,0.18-0.088,0.355-0.155,0.521
			c-0.002,0.004-0.003,0.009-0.004,0.013c-0.07,0.169-0.16,0.327-0.259,0.482c-0.039,0.062-0.085,0.121-0.129,0.18
			c-0.099,0.134-0.2,0.266-0.323,0.388c-0.628,0.623-1.399,0.929-2.326,0.929c-0.78,0-1.475-0.246-2.071-0.744l184.117,154.105
			c0.596,0.499,1.292,0.744,2.071,0.744c0.927,0,1.699-0.306,2.326-0.929c0,0,0,0,0.001-0.001l0,0c0,0,0-0.001,0.001-0.001
			c0.07-0.07,0.136-0.141,0.198-0.214l0,0c0.046-0.054,0.08-0.114,0.122-0.17c0.046-0.061,0.092-0.122,0.133-0.186
			c0.018-0.028,0.041-0.052,0.058-0.08l0.001,0.001c0.074-0.125,0.139-0.255,0.195-0.389c0.001-0.003,0.002-0.006,0.003-0.009
			c0.003-0.007,0.005-0.015,0.008-0.023c0.048-0.119,0.09-0.24,0.124-0.366l-0.012-0.01v-0.001l0.012,0.01
			c0.012-0.046,0.017-0.096,0.028-0.142c0.013-0.057,0.024-0.116,0.034-0.174c0.008-0.046,0.021-0.09,0.027-0.137
			c0.017-0.133,0.025-0.27,0.027-0.411c0-0.01,0.003-0.02,0.003-0.03l-0.001-0.001l0.544-59.446h11.248L156.677,53.107h-11.248
			L145.379,58.515z"/>
	</g>
</g>
<g>
	<g>
		
			<linearGradient id="SVGID_8_" gradientUnits="userSpaceOnUse" x1="241.5241" y1="-26.8065" x2="-14.5434" y2="121.0341" gradientTransform="matrix(1 0 0 -1 0 284)">
			<stop  offset="0.2163" style="stop-color:#F29C00;stop-opacity:0"/>
			<stop  offset="1" style="stop-color:#CE5C02"/>
		</linearGradient>
		<path fill="url(#SVGID_8_)" d="M228.112,285.32c0.019-0.158,0.027-0.313,0.023-0.466l-0.001-0.001
			c0-0.013-0.004-0.024-0.005-0.037c-0.003-0.076-0.02-0.148-0.029-0.223c-0.012-0.101-0.016-0.204-0.039-0.302l-0.013-0.011v-0.001
			l0.013,0.011c-0.004-0.018-0.015-0.035-0.02-0.054c-0.036-0.137-0.092-0.271-0.15-0.404c-0.029-0.066-0.047-0.135-0.081-0.201
			c-0.103-0.197-0.227-0.39-0.38-0.577c-0.055-0.068-0.112-0.133-0.17-0.196l-0.121-0.101c-0.002-0.002-0.004-0.004-0.006-0.006
			l0.127,0.106c-0.109-0.118-0.223-0.227-0.342-0.326L42.8,128.428c0.179,0.15,0.347,0.323,0.505,0.516
			c0.002,0.003,0.005,0.005,0.007,0.008c0.153,0.187,0.277,0.38,0.38,0.577c0.033,0.064,0.052,0.131,0.08,0.197
			c0.058,0.135,0.115,0.27,0.151,0.409c0.031,0.121,0.047,0.245,0.061,0.369c0.008,0.068,0.024,0.134,0.027,0.203
			c0.008,0.196,0,0.395-0.031,0.599l-3.499,26.487L5.397,128.428c0.131,0.11,0.244,0.231,0.353,0.354
			c0.162,0.183,0.305,0.377,0.418,0.588c0.015,0.027,0.023,0.058,0.037,0.085c0.094,0.188,0.167,0.388,0.223,0.596
			c0.038,0.14,0.077,0.28,0.097,0.429l5.495,48.124l5.382,4.504l-3.854,11.36c-0.006,0.006-0.011,0.012-0.016,0.018
			c-0.01,0.012-0.019,0.024-0.027,0.037c-0.007,0.012-0.013,0.024-0.018,0.037c-0.004,0.008-0.006,0.017-0.009,0.026
			c-0.001,0.002-0.001,0.004-0.002,0.006c-0.001,0.004-0.003,0.007-0.004,0.011c-0.005,0.019-0.009,0.04-0.012,0.062
			c-0.003,0.027-0.005,0.055-0.005,0.086c-0.044,0.06-0.074,0.106-0.102,0.138c-0.03,0.036-0.056,0.055-0.092,0.055l-0.093,0.272
			l-0.092,0.192l-0.559,0.544l184.118,154.104l0.559-0.544l0.092-0.192l0.093-0.272c0.035,0,0.062-0.02,0.092-0.055l0,0
			c0.028-0.032,0.058-0.079,0.102-0.137l0,0c0-0.001,0-0.001,0-0.002c0.001-0.06,0.007-0.113,0.021-0.158
			c0.001-0.002,0.002-0.004,0.002-0.006c0.015-0.045,0.037-0.084,0.07-0.118l3.318-9.779l13.456,11.263l0.179,0.147l0.17,0.128
			l0.009,0.008c0.247,0.181,0.495,0.305,0.923,0.362l0.018,0.015c0.068,0.058,0.201,0.087,0.909,0.087h0.566
			c0.25-0.125,0.466-0.227,1.113-0.555c0.003-0.001,0.006-0.003,0.008-0.004c0.039-0.012,0.081-0.031,0.125-0.057
			c0.016-0.009,0.034-0.022,0.051-0.034c0.037-0.025,0.078-0.058,0.121-0.097c0.02-0.018,0.039-0.034,0.06-0.055
			c0.063-0.062,0.133-0.135,0.215-0.232l0,0c0.001-0.001,0.002-0.002,0.003-0.003c0.1-0.118,0.215-0.262,0.352-0.446l0.103-0.181
			l0,0l0,0h0.001c0.002-0.002,0.003-0.004,0.005-0.006c0.008-0.009,0.016-0.019,0.024-0.028c0.033-0.039,0.062-0.078,0.085-0.117
			l-0.003-0.003l0,0l0.003,0.003c0.005-0.009,0.008-0.017,0.013-0.026c0.003-0.006,0.007-0.013,0.01-0.019
			c0.005-0.009,0.01-0.019,0.014-0.028l-0.006-0.005c0,0,0,0,0-0.001l0.005,0.004c0.008-0.019,0.015-0.037,0.02-0.056l0,0
			c0.004-0.017,0.008-0.035,0.01-0.052l-0.006-0.005l0,0l0.006,0.005c0.002-0.014,0.003-0.027,0.003-0.041l0,0l0.186-0.555l0,0l0,0
			l0,0c0.001-0.124,0.036-0.215,0.104-0.283l8.259-62.517l-0.001-0.001C228.103,285.379,228.107,285.349,228.112,285.32
			l-0.009-0.007c0,0,0,0,0-0.001L228.112,285.32z M11.392,196.608l-0.464,0.091h-0.372l-0.001-0.001
			c-1.016-0.068-1.23-0.158-1.478-0.283c-0.367-0.178-0.581-0.299-0.728-0.402c-0.049-0.034-0.091-0.066-0.129-0.098L192.339,350.02
			c0.15,0.126,0.367,0.262,0.856,0.5c0.247,0.124,0.461,0.215,1.478,0.283h0.373l0.463-0.091l0.001,0.001
			c0.249-0.068,0.465-0.193,0.659-0.374c0.125-0.057,0.239-0.147,0.466-0.283L12.517,195.952c-0.227,0.136-0.341,0.226-0.466,0.283
			C11.857,196.416,11.641,196.54,11.392,196.608z"/>
	</g>
</g>
<linearGradient id="SVGID_9_" gradientUnits="userSpaceOnUse" x1="273.7487" y1="-23.6645" x2="39.9113" y2="111.3416" gradientTransform="matrix(1 0 0 -1 0 284)">
	<stop  offset="0.2163" style="stop-color:#F29C00;stop-opacity:0"/>
	<stop  offset="1" style="stop-color:#CE5C02"/>
</linearGradient>
<path fill="url(#SVGID_9_)" d="M250.252,347.553l0.573-62.607c0-0.004-0.001-0.009-0.001-0.013c0.001-0.038,0-0.075-0.001-0.112l0,0
	c-0.002-0.074-0.021-0.143-0.028-0.216c-0.012-0.122-0.021-0.244-0.046-0.361c-0.004-0.019-0.003-0.041-0.008-0.06l-0.014-0.012
	v-0.001l0.014,0.012c-0.01-0.044-0.036-0.082-0.048-0.126c-0.05-0.176-0.115-0.347-0.197-0.512c-0.034-0.068-0.071-0.136-0.11-0.202
	c-0.097-0.162-0.212-0.318-0.341-0.469c-0.03-0.035-0.048-0.075-0.08-0.109l-0.036-0.031c-0.001-0.001-0.001-0.002-0.002-0.003
	l0.04,0.033c-0.029-0.032-0.06-0.064-0.091-0.095c-0.083-0.083-0.168-0.16-0.254-0.232L65.502,128.334
	c0.086,0.072,0.17,0.15,0.253,0.232c0.003,0.003,0.005,0.005,0.008,0.008c0.062,0.063,0.107,0.131,0.162,0.196
	c0.13,0.151,0.245,0.308,0.343,0.471c0.039,0.066,0.075,0.133,0.109,0.2c0.083,0.166,0.148,0.338,0.199,0.516
	c0.017,0.061,0.041,0.12,0.055,0.183c0.025,0.117,0.035,0.238,0.046,0.359c0.011,0.114,0.031,0.225,0.03,0.343l-0.573,62.607
	c-0.002,0.192-0.026,0.375-0.059,0.555c-0.008,0.044-0.016,0.088-0.026,0.131c-0.041,0.177-0.094,0.349-0.165,0.515
	c-0.011,0.025-0.026,0.05-0.038,0.075c-0.063,0.135-0.139,0.266-0.223,0.394c-0.048,0.074-0.102,0.147-0.158,0.219
	c-0.101,0.131-0.202,0.263-0.325,0.387c-0.661,0.646-1.411,0.974-2.281,0.974c-0.791,0-1.465-0.239-2.028-0.711L244.95,350.092
	c0.205,0.172,0.43,0.302,0.665,0.412c0.208,0.097,0.426,0.172,0.657,0.22c0.225,0.047,0.457,0.079,0.705,0.079l0,0l0,0
	c0.87,0,1.619-0.329,2.281-0.974c0,0,0.001-0.001,0.001-0.002c0.076-0.076,0.147-0.154,0.214-0.232l0,0
	c0.042-0.05,0.072-0.103,0.11-0.154c0.055-0.072,0.109-0.145,0.157-0.219c0.024-0.037,0.057-0.072,0.079-0.11l-0.012-0.01
	c0,0,0,0,0-0.001l0.012,0.01c0.055-0.093,0.1-0.191,0.145-0.288c0.011-0.024,0.025-0.046,0.035-0.07
	c0.005-0.011,0.012-0.022,0.017-0.034l-0.001-0.001c0.052-0.123,0.095-0.248,0.129-0.376l-0.01-0.009c0,0,0,0,0-0.001l0.01,0.008
	c0.009-0.033,0.012-0.068,0.02-0.102c0.01-0.044,0.018-0.089,0.026-0.134c0.011-0.058,0.026-0.113,0.034-0.172
	c0.015-0.124,0.024-0.25,0.025-0.38C250.252,347.554,250.252,347.553,250.252,347.553L250.252,347.553z"/>
<linearGradient id="SVGID_10_" gradientUnits="userSpaceOnUse" x1="318.5477" y1="-29.2197" x2="64.0643" y2="117.7063" gradientTransform="matrix(1 0 0 -1 0 284)">
	<stop  offset="0.2163" style="stop-color:#F29C00;stop-opacity:0"/>
	<stop  offset="1" style="stop-color:#CE5C02"/>
</linearGradient>
<path fill="url(#SVGID_10_)" d="M299.029,284.663c0-0.041,0-0.082-0.001-0.122l-0.011-0.009l0,0l0.011,0.009
	c-0.002-0.084-0.023-0.163-0.032-0.245c-0.011-0.107-0.019-0.215-0.041-0.318c-0.005-0.021-0.003-0.044-0.008-0.065l0,0
	c-0.011-0.047-0.039-0.089-0.052-0.135c-0.049-0.171-0.112-0.337-0.192-0.497c-0.036-0.072-0.074-0.142-0.116-0.212
	c-0.095-0.158-0.207-0.31-0.332-0.457c-0.033-0.038-0.052-0.081-0.086-0.119c-0.029-0.032-0.06-0.064-0.091-0.095
	c-0.089-0.09-0.179-0.173-0.271-0.25L113.689,128.045c0.092,0.077,0.182,0.16,0.271,0.25c0.002,0.002,0.004,0.004,0.006,0.006
	c0.063,0.064,0.109,0.134,0.166,0.201c0.128,0.15,0.242,0.305,0.339,0.466c0.04,0.068,0.078,0.136,0.112,0.206
	c0.081,0.163,0.145,0.331,0.195,0.504c0.019,0.065,0.044,0.127,0.059,0.194c0.022,0.105,0.03,0.214,0.042,0.322
	c0.013,0.121,0.033,0.239,0.032,0.365l-0.192,21.03l-28.428-23.793l0.729,0.646l0.636,0.917l11.181,26.408l-11.123-9.31
	l-0.427,46.709c0,0.001,0,0.002,0,0.003c-0.002,0.191-0.025,0.374-0.056,0.553c-0.009,0.052-0.019,0.104-0.03,0.155
	c-0.08,0.356-0.219,0.689-0.416,1c-0.047,0.075-0.103,0.147-0.157,0.219c-0.091,0.122-0.18,0.244-0.289,0.359
	c-0.627,0.645-1.399,0.962-2.326,0.962c-0.757,0-1.426-0.239-2.007-0.726l184.118,154.104c0.581,0.486,1.25,0.726,2.007,0.726
	c0.927,0,1.698-0.317,2.326-0.962l0,0c0,0,0.001,0,0.001-0.001c0.053-0.056,0.105-0.113,0.154-0.171l0,0
	c0.05-0.059,0.087-0.123,0.132-0.185c0.055-0.073,0.111-0.146,0.159-0.221c0.016-0.025,0.038-0.048,0.053-0.074l-0.009-0.008
	c0,0,0,0,0-0.001l0.01,0.008c0.077-0.131,0.145-0.265,0.203-0.404c0.053-0.129,0.098-0.26,0.134-0.395
	c0.011-0.041,0.015-0.085,0.025-0.126c0.011-0.051,0.021-0.103,0.03-0.155c0.009-0.051,0.023-0.099,0.029-0.151l-0.013-0.011l0,0
	l0.013,0.011c0.017-0.132,0.026-0.266,0.027-0.404l0,0l0,0v-0.001l0.142-15.543l21.899,18.329l0.18,0.101l0.191,0.091
	l-22.269-18.639v-0.001l22.269,18.639c0.124,0.057,0.202,0.091,0.225,0.091c0.034,0,0.113,0.023,0.237,0.091h0.18
	c0.068,0.057,0.158,0.091,0.282,0.091l-23.188-19.408v-0.001l23.189,19.409h0.463c0.305,0,0.52-0.034,0.645-0.091
	c0.249,0,0.498-0.068,2.496-2.219l0.109-0.747l0.002-0.284L299.029,284.663L299.029,284.663z"/>
<linearGradient id="SVGID_11_" gradientUnits="userSpaceOnUse" x1="358.8386" y1="-27.1232" x2="116.0877" y2="113.0291" gradientTransform="matrix(1 0 0 -1 0 284)">
	<stop  offset="0.2163" style="stop-color:#F29C00;stop-opacity:0"/>
	<stop  offset="1" style="stop-color:#CE5C02"/>
</linearGradient>
<path fill="url(#SVGID_11_)" d="M342.044,335.036c0-0.01,0-0.023,0-0.032c-0.006-0.248-0.024-0.433-0.05-0.552l0.166-18.208
	l-23.863-19.973c0.014-0.175,0.015-0.36,0.034-0.53c0.015-0.137,0.031-0.274,0.049-0.408c0.073-0.528,0.166-1.037,0.292-1.516
	c0.021-0.082,0.05-0.156,0.073-0.237c0.097-0.336,0.206-0.661,0.329-0.972c0.05-0.126,0.104-0.247,0.159-0.369
	c0.109-0.245,0.228-0.481,0.355-0.709c0.062-0.111,0.123-0.223,0.189-0.33c0.217-0.352,0.45-0.689,0.713-1
	c0.21-0.248,0.434-0.482,0.673-0.703c0.47-0.415,0.969-0.762,1.491-1.056l13.903,11.636c0.595,0.498,1.311,0.743,2.116,0.743
	c0.87,0,1.631-0.317,2.281-0.962c0.08-0.08,0.156-0.162,0.227-0.245c0.042-0.05,0.073-0.104,0.111-0.156
	c0.051-0.068,0.102-0.135,0.147-0.205c0.023-0.036,0.054-0.069,0.076-0.105c0.056-0.094,0.101-0.192,0.146-0.29
	c0.013-0.028,0.029-0.054,0.041-0.082c0.002-0.006,0.006-0.011,0.008-0.016l-0.002-0.002c0,0,0,0,0-0.001l0.003,0.003
	c0.051-0.123,0.094-0.25,0.129-0.379c0.01-0.038,0.014-0.079,0.023-0.118c0.01-0.045,0.018-0.091,0.027-0.137
	c0.01-0.054,0.024-0.106,0.031-0.161c0.016-0.128,0.025-0.259,0.026-0.393v-0.001l0,0c0-0.001,0-0.003,0-0.004
	c0.003-0.382,0-0.757-0.01-1.122l-0.003-0.002v-0.001l0.003,0.002c-0.001-0.023-0.003-0.044-0.003-0.067
	c-0.005-0.183-0.017-0.358-0.026-0.537c-0.011-0.222-0.02-0.446-0.036-0.661c-0.012-0.167-0.031-0.326-0.047-0.489
	c-0.021-0.216-0.04-0.434-0.066-0.643c-0.02-0.159-0.045-0.31-0.068-0.465c-0.03-0.202-0.059-0.406-0.094-0.601
	c-0.028-0.153-0.061-0.299-0.092-0.447c-0.032-0.152-0.059-0.31-0.094-0.459l0.001,0.001c-0.007-0.028-0.016-0.051-0.023-0.079
	c-0.108-0.446-0.234-0.868-0.374-1.274c-0.035-0.101-0.072-0.198-0.108-0.296c-0.149-0.401-0.309-0.788-0.491-1.147
	c-0.003-0.006-0.005-0.014-0.009-0.021c-0.247-0.481-0.498-0.927-0.751-1.352c-0.078-0.131-0.157-0.25-0.235-0.376
	c-0.176-0.282-0.352-0.555-0.53-0.811c-0.095-0.136-0.19-0.266-0.285-0.395c-0.167-0.226-0.335-0.44-0.504-0.643
	c-0.097-0.117-0.195-0.235-0.293-0.345c-0.048-0.054-0.096-0.118-0.145-0.17l-0.104-0.087c-0.002-0.002-0.003-0.003-0.005-0.005
	l0.109,0.091c-0.198-0.213-0.396-0.412-0.596-0.596c-0.135-0.121-0.271-0.239-0.408-0.354l-184.117-154.1
	c0.138,0.115,0.273,0.233,0.408,0.354c0.01,0.009,0.019,0.02,0.029,0.029c0.239,0.223,0.477,0.474,0.713,0.739
	c0.098,0.11,0.196,0.229,0.293,0.346c0.166,0.2,0.332,0.411,0.496,0.633c0.1,0.135,0.199,0.27,0.298,0.413
	c0.168,0.242,0.335,0.501,0.501,0.766c0.089,0.142,0.178,0.277,0.266,0.425c0.238,0.401,0.474,0.823,0.707,1.274
	c0.011,0.021,0.022,0.04,0.034,0.061c0.188,0.369,0.353,0.769,0.507,1.184c0.033,0.088,0.066,0.176,0.097,0.266
	c0.143,0.414,0.272,0.846,0.382,1.303c0.039,0.16,0.072,0.328,0.107,0.493c0.034,0.161,0.07,0.319,0.099,0.485
	c0.032,0.178,0.058,0.365,0.086,0.549c0.026,0.172,0.054,0.342,0.076,0.519c0.023,0.187,0.04,0.382,0.059,0.575
	c0.018,0.185,0.039,0.367,0.053,0.557c0.014,0.191,0.022,0.391,0.032,0.588c0.01,0.202,0.024,0.401,0.03,0.608
	c0.009,0.304,0.011,0.618,0.01,0.934l-9.734-8.147c-0.095-0.08-0.192-0.156-0.291-0.229c-0.921-0.679-1.855-1.121-2.814-1.302
	c-0.959-0.192-1.682-0.283-2.179-0.283c-2.227,0-4.144,0.713-5.762,2.14c-0.237,0.219-0.46,0.452-0.669,0.697
	c-0.002,0.002-0.003,0.004-0.004,0.006c-0.263,0.31-0.496,0.648-0.713,1c-0.025,0.04-0.057,0.073-0.081,0.113l0.011,0.009l0,0
	l-0.011-0.009c-0.041,0.069-0.07,0.148-0.109,0.218c-0.127,0.228-0.245,0.463-0.354,0.707c-0.032,0.072-0.074,0.136-0.105,0.21
	c-0.021,0.05-0.034,0.109-0.054,0.16c-0.124,0.311-0.233,0.636-0.329,0.972c-0.019,0.066-0.047,0.124-0.065,0.191
	c-0.004,0.014-0.005,0.031-0.009,0.045c-0.126,0.479-0.219,0.989-0.292,1.517c-0.009,0.062-0.026,0.115-0.034,0.177
	c-0.009,0.072-0.006,0.154-0.014,0.227c-0.062,0.558-0.106,1.133-0.112,1.743l-0.336,36.699c0,0.037-0.001,0.085-0.001,0.145
	c-0.001,0.062-0.001,0.137-0.002,0.226c-0.002,0.172-0.004,0.396-0.007,0.683c-0.001,0.123,0,0.253,0.004,0.387l0.01,0.008l0,0
	l-0.01-0.008c0.003,0.127,0.016,0.275,0.024,0.412c0.006,0.097,0.009,0.19,0.017,0.292c0.027,0.339,0.062,0.698,0.115,1.092
	c0.057,0.423,0.137,0.858,0.243,1.307c0.001,0.006,0.004,0.012,0.005,0.018c0.113,0.473,0.253,0.959,0.427,1.461
	c0.02,0.062,0.049,0.118,0.071,0.178c0.063,0.174,0.127,0.347,0.203,0.512c0.04,0.087,0.088,0.168,0.132,0.253
	c0.069,0.135,0.137,0.27,0.214,0.399c0.053,0.088,0.114,0.172,0.172,0.257c0.079,0.117,0.157,0.235,0.243,0.347
	c0.067,0.087,0.14,0.169,0.211,0.253c0.063,0.074,0.119,0.151,0.185,0.222c0.053,0.058,0.108,0.115,0.163,0.171
	c0.023,0.026,0.046,0.051,0.07,0.076c0.17,0.185,0.351,0.357,0.543,0.518l9.364,7.838c-1.233,0.264-2.541,0.412-3.942,0.412
	c-3.873,0-7.029-1.011-9.453-3.04L316.885,348.6c2.303,1.928,5.273,2.925,8.885,3.021c0.19,0.005,0.374,0.019,0.568,0.019l0,0l0,0
	c4.703,0,8.458-1.483,11.266-4.461c0.137-0.149,0.271-0.3,0.402-0.454c0.048-0.057,0.09-0.12,0.138-0.177
	c0.151-0.184,0.297-0.374,0.44-0.566c0.096-0.128,0.192-0.256,0.284-0.388c0.146-0.209,0.284-0.426,0.42-0.645
	c0.06-0.096,0.126-0.185,0.184-0.283l-0.005-0.004l0,0l0.005,0.005c0.02-0.034,0.038-0.071,0.058-0.106
	c0.095-0.162,0.182-0.332,0.272-0.499c0.092-0.172,0.187-0.341,0.274-0.518c0.088-0.178,0.168-0.364,0.251-0.548
	c0.068-0.151,0.142-0.296,0.206-0.451l-0.001-0.001c0.009-0.023,0.017-0.047,0.026-0.07c0.113-0.273,0.215-0.557,0.317-0.841
	c0.041-0.114,0.086-0.223,0.125-0.338c0.265-0.789,0.489-1.617,0.67-2.486c0.013-0.067,0.018-0.123,0.03-0.189
	c0.083-0.449,0.155-0.885,0.206-1.286l-0.001-0.001c0.058-0.466,0.097-0.9,0.118-1.298c0.021-0.392,0.025-0.713,0.02-0.974
	C342.044,335.055,342.044,335.044,342.044,335.036z"/>
<g>
	<g>
		<path fill="#FFFFFF" d="M16.525,0c0.407,0,0.756,0.159,1.058,0.464c0.302,0.306,0.457,0.679,0.453,1.11
			c-0.004,0.408-0.165,0.77-0.473,1.076c-0.308,0.306-0.66,0.464-1.067,0.464h-5.29l-0.255,27.889
			c-0.004,0.442-0.154,0.804-0.44,1.098c-0.297,0.294-0.66,0.442-1.101,0.442c-0.407,0-0.756-0.147-1.059-0.442
			s-0.457-0.657-0.453-1.098L8.153,3.114h-5.37c-0.441,0-0.812-0.159-1.115-0.464C1.366,2.344,1.222,1.993,1.226,1.574
			C1.23,1.144,1.392,0.77,1.7,0.464S2.371,0,2.812,0H16.525z"/>
	</g>
	<g>
		<path fill="#FFFFFF" d="M36.16,0c0.407,0,0.767,0.159,1.07,0.464c0.302,0.306,0.446,0.657,0.442,1.064l-0.27,29.475
			c-0.004,0.408-0.154,0.77-0.462,1.076c-0.308,0.306-0.671,0.453-1.078,0.453c-0.43,0-0.801-0.147-1.104-0.453
			s-0.457-0.668-0.454-1.076l0.104-11.369H25.24l-0.104,11.369c-0.004,0.408-0.154,0.77-0.462,1.076s-0.682,0.453-1.123,0.453
			c-0.407,0-0.756-0.147-1.058-0.453s-0.457-0.668-0.454-1.076l0.27-29.475c0.004-0.408,0.165-0.759,0.473-1.064
			C23.09,0.158,23.442,0,23.849,0c0.441,0,0.812,0.159,1.115,0.464c0.302,0.306,0.446,0.657,0.442,1.064l-0.137,15.003h9.168
			l0.137-15.003c0.004-0.408,0.165-0.759,0.473-1.064C35.356,0.159,35.731,0,36.16,0z"/>
	</g>
	<g>
		<path fill="#FFFFFF" d="M31.349,46.494c0.927,0,1.715,0.328,2.354,0.974c0.65,0.657,0.971,1.415,0.963,2.287
			c-0.008,0.929-0.344,1.721-1.005,2.378c-0.65,0.657-1.445,0.974-2.372,0.974h-21.4L9.627,81.71h16.097
			c0.927,0,1.693,0.328,2.308,0.985c0.616,0.645,0.925,1.438,0.917,2.378c-0.008,0.861-0.331,1.631-0.959,2.276
			c-0.628,0.657-1.399,0.974-2.326,0.974H9.567l-0.191,20.88h21.399c0.927,0,1.715,0.328,2.365,0.974
			c0.638,0.657,0.959,1.449,0.95,2.378c-0.008,0.872-0.343,1.631-0.993,2.287c-0.662,0.657-1.456,0.974-2.383,0.974H6.059
			c-0.927,0-1.715-0.328-2.365-0.974c-0.638-0.657-0.959-1.415-0.951-2.287l0.574-62.8c0.008-0.872,0.343-1.631,0.993-2.287
			c0.662-0.645,1.456-0.974,2.383-0.974L31.349,46.494L31.349,46.494z"/>
	</g>
	<g>
		<path fill="#FFFFFF" d="M57.469,0c0.43,0,0.801,0.159,1.104,0.464c0.302,0.306,0.457,0.657,0.454,1.064
			c-0.004,0.442-0.166,0.815-0.474,1.121s-0.683,0.464-1.112,0.464h-10.05l-0.123,13.418h7.563c0.43,0,0.79,0.158,1.081,0.464
			s0.435,0.668,0.431,1.11c-0.004,0.408-0.154,0.77-0.451,1.076s-0.66,0.453-1.089,0.453H47.24l-0.09,9.795H57.2
			c0.43,0,0.801,0.159,1.104,0.464c0.302,0.306,0.457,0.679,0.453,1.11c-0.004,0.408-0.165,0.77-0.473,1.076
			s-0.682,0.453-1.112,0.453H45.596c-0.43,0-0.801-0.147-1.104-0.453c-0.302-0.306-0.457-0.668-0.454-1.076l0.27-29.475
			c0.004-0.408,0.165-0.759,0.473-1.064C45.089,0.158,45.463,0,45.893,0H57.469L57.469,0z"/>
	</g>
	<g>
		<path fill="#FFFFFF" d="M75.484,112.929c0.173,0.872,0.007,1.664-0.485,2.378c-0.504,0.713-1.164,1.166-1.968,1.347h-0.565
			c-0.678,0-1.309-0.226-1.893-0.691s-0.94-1.042-1.058-1.733l-2.399-12.105H52.047l-2.53,12.105
			c-0.131,0.691-0.498,1.268-1.09,1.733c-0.592,0.464-1.261,0.691-2.007,0.691h-0.554c-0.801-0.181-1.441-0.634-1.898-1.347
			s-0.586-1.506-0.397-2.378l13.521-64.385c0.059-0.249,0.128-0.407,0.196-0.464c0.118-0.498,0.278-0.713,0.471-0.838l0.002-0.193
			c0.501-0.396,0.626-0.498,0.751-0.555c0.114-0.056,0.272-0.125,0.465-0.181c0.216-0.158,0.352-0.193,0.511-0.193
			c0.158,0,0.294-0.023,0.419-0.091h0.283c0.214,0.057,0.35,0.091,0.508,0.091s0.294,0.034,0.418,0.091
			c0.338,0.158,0.518,0.227,0.641,0.283c0.124,0.056,0.248,0.158,0.371,0.283l0.369,0.464c0.067,0.124,0.145,0.226,0.234,0.328
			c0.09,0.091,0.168,0.193,0.235,0.317c0.054,0.249,0.087,0.407,0.084,0.656L75.484,112.929z M53.312,96.068h12.65l-6.133-31.501
			L53.312,96.068"/>
	</g>
	<g>
		<path fill="#FFFFFF" d="M40.674,127.66c0.153,0,0.309,0.011,0.468,0.034c0.869,0.125,1.589,0.544,2.17,1.257
			c0.581,0.713,0.8,1.495,0.668,2.355l-8.259,62.516c-0.068,0.068-0.103,0.159-0.104,0.283l-0.186,0.555
			c-0.001,0.125-0.07,0.249-0.184,0.374l-0.103,0.181c-0.526,0.702-0.743,0.872-0.935,0.929c-0.647,0.328-0.863,0.43-1.113,0.555
			h-0.565c-0.769,0-0.859-0.034-0.926-0.102c-0.429-0.057-0.677-0.181-0.924-0.362l-0.18-0.136l-0.18-0.147l-0.19-0.181
			c-0.548-0.679-0.581-0.736-0.638-0.736l-0.099-0.283l-7.749-24.153l-8.097,23.87c-0.068,0.068-0.092,0.159-0.093,0.283
			c-0.092,0.125-0.126,0.193-0.194,0.193l-0.093,0.272l-0.092,0.193l-0.559,0.544c-0.227,0.136-0.341,0.226-0.466,0.283
			c-0.194,0.181-0.41,0.306-0.659,0.374l-0.464,0.091h-0.373c-1.017-0.068-1.231-0.159-1.478-0.283
			c-0.675-0.328-0.832-0.464-1.011-0.645l-0.736-1.11l0.002-0.193c-0.143-0.419-0.176-0.521-0.175-0.645L0.03,131.31
			c-0.116-0.861,0.105-1.642,0.666-2.355c0.572-0.713,1.31-1.132,2.238-1.257c0.159-0.023,0.315-0.034,0.469-0.034
			c0.685,0,1.312,0.228,1.899,0.691c0.696,0.544,1.108,1.268,1.224,2.129l5.495,48.124l6.577-19.51l0.379-0.645
			c0.88-1.053,1.016-1.121,1.175-1.166c0.147-0.034,0.284-0.102,0.409-0.238h0.192h2.227c0.123,0.136,0.247,0.204,0.371,0.238
			c0.113,0.034,0.236,0.113,0.36,0.238l7.415,21.084l6.375-48.124c0.132-0.861,0.557-1.585,1.274-2.129
			C39.36,127.888,39.989,127.66,40.674,127.66z"/>
	</g>
	<g>
		<path fill="#FFFFFF" d="M63.492,127.592c0.87,0,1.614,0.328,2.263,0.974c0.638,0.645,0.959,1.404,0.951,2.276l-0.573,62.607
			c-0.008,0.872-0.343,1.619-0.993,2.276c-0.662,0.645-1.411,0.974-2.281,0.974c-0.927,0-1.693-0.328-2.308-0.974
			c-0.616-0.657-0.914-1.404-0.906-2.276l0.573-62.607c0.008-0.872,0.32-1.631,0.948-2.276
			C61.793,127.909,62.565,127.592,63.492,127.592z"/>
	</g>
	<g>
		<path fill="#FFFFFF" d="M100.557,46.211c4.77,0,8.454,1.461,11.027,4.382c0.917,1.053,1.652,2.265,2.205,3.635
			c0.541,1.37,0.867,2.854,0.977,4.473c0.114,1.121,0.151,2.061,0.11,2.842c-0.03,0.77-0.09,1.223-0.148,1.348
			c-0.188,0.815-0.421,1.529-0.675,2.14c-0.31,0.498-0.687,0.94-1.12,1.314c-0.331,0.27-0.779,0.414-1.341,0.414
			c-0.193,0-0.399-0.017-0.618-0.052c-0.869-0.113-1.488-0.442-1.856-0.974c-0.368-0.521-0.612-1.076-0.731-1.631
			c-0.175-0.679-0.202-1.393-0.071-2.14c0.132-0.872,0.14-1.71,0.023-2.514c-0.118-0.691-0.292-1.449-0.533-2.287
			s-0.641-1.597-1.189-2.276c-1.23-1.495-3.269-2.242-6.118-2.242c-2.86,0-5.004,0.815-6.443,2.423
			c-0.696,0.691-1.212,1.461-1.559,2.333s-0.592,1.653-0.722,2.333c-0.189,0.872-0.264,1.71-0.204,2.514l-0.003,0.283
			c-0.014,1.551,0.222,2.955,0.708,4.19c0.486,1.246,1.165,2.389,2.06,3.454c0.883,1.053,1.959,2.095,3.227,3.114
			c1.268,1.03,2.694,2.129,4.299,3.306c1.787,1.189,3.527,2.446,5.211,3.782c1.695,1.336,3.286,2.899,4.75,4.699
			c3.309,4.099,4.948,8.979,4.897,14.63c-0.026,2.854-0.535,5.333-1.515,7.405c-0.98,2.084-2.262,3.793-3.857,5.129
			s-3.401,2.333-5.431,2.978c-2.018,0.645-4.045,0.974-6.091,0.974c-4.341,0-7.992-1.234-10.943-3.725
			c-1.167-0.996-2.317-2.502-3.452-4.518c-1.123-2.016-1.675-4.767-1.643-8.255c0.008-0.929,0.343-1.699,1.005-2.321
			c0.65-0.623,1.444-0.94,2.383-0.94c0.859,0,1.602,0.317,2.218,0.94s0.914,1.393,0.906,2.321c-0.019,2.061,0.26,3.737,0.836,5.039
			s1.324,2.321,2.256,3.023c0.92,0.713,1.956,1.212,3.095,1.495c1.15,0.283,2.28,0.419,3.399,0.419c0.61,0,1.493-0.079,2.647-0.238
			c1.143-0.147,2.277-0.566,3.414-1.257c1.114-0.679,2.095-1.676,2.955-2.978c0.848-1.302,1.283-3.137,1.305-5.503
			c0.021-2.287-0.288-4.314-0.917-6.047c-0.64-1.744-1.53-3.295-2.659-4.665c-1.141-1.359-2.44-2.616-3.922-3.771
			c-1.482-1.144-3.042-2.31-4.705-3.499c-1.483-1.053-2.976-2.174-4.491-3.352c-1.504-1.178-2.871-2.48-4.102-3.907
			c-2.885-3.42-4.341-7.36-4.357-11.833c0.002-0.249,0.029-0.747,0.059-1.495c0.041-0.747,0.162-1.619,0.352-2.616
			c0.583-3.171,1.85-5.809,3.792-7.915C92.077,47.672,95.843,46.211,100.557,46.211z"/>
	</g>
	<g>
		<path fill="#FFFFFF" d="M111.696,127.309c0.859,0,1.613,0.328,2.263,0.985c0.638,0.645,0.959,1.404,0.951,2.265l-0.572,62.516
			l-0.003,0.283l-0.109,0.747c-1.998,2.151-2.247,2.219-2.496,2.219c-0.125,0.057-0.34,0.091-0.645,0.091h-0.463
			c-0.124,0-0.214-0.034-0.282-0.091h-0.181c-0.124-0.068-0.203-0.091-0.237-0.091c-0.023,0-0.101-0.034-0.225-0.091l-0.191-0.091
			l-0.18-0.102l-0.818-0.838c-0.247-0.238-0.28-0.328-0.278-0.453l-0.089-0.147l-20.428-48.056l-0.427,46.709
			c-0.008,0.883-0.332,1.642-0.948,2.287c-0.628,0.645-1.399,0.962-2.326,0.962c-0.87,0-1.625-0.317-2.263-0.962
			c-0.65-0.657-0.959-1.404-0.951-2.287l0.572-62.516l0.002-0.181l0.096-0.645l0.095-0.464c1.802-1.789,1.927-1.846,2.052-1.846
			c0.124,0,0.238-0.023,0.363-0.091c0.227-0.068,0.464-0.091,0.849-0.091h0.181l0.542,0.091l0.191,0.091l0.27,0.091l0.281,0.192
			l0.729,0.645l0.636,0.917l20.338,48.034l0.428-46.834c0.008-0.861,0.32-1.619,0.936-2.265
			C109.986,127.638,110.758,127.309,111.696,127.309z"/>
	</g>
	<g>
		<path fill="#FFFFFF" d="M156.749,46.494c0.859,0,1.614,0.328,2.263,0.974c0.65,0.657,0.959,1.449,0.95,2.378
			c-0.008,0.872-0.331,1.631-0.993,2.287c-0.662,0.645-1.422,0.974-2.292,0.974h-11.248l-0.544,59.448
			c-0.008,0.929-0.332,1.71-0.96,2.333c-0.627,0.623-1.399,0.929-2.326,0.929c-0.87,0-1.636-0.306-2.275-0.929
			s-0.959-1.393-0.951-2.333l0.544-59.448h-11.44c-0.938,0-1.715-0.328-2.365-0.974c-0.65-0.657-0.971-1.415-0.963-2.287
			c0.008-0.929,0.344-1.721,1.005-2.367c0.662-0.657,1.445-0.985,2.383-0.985C127.537,46.494,156.749,46.494,156.749,46.494z"/>
	</g>
	<g>
		<path fill="#FFFFFF" d="M142.868,126.754c3.957,0,7.325,1.234,10.083,3.714c1.155,1.064,2.271,2.616,3.337,4.688
			c1.055,2.072,1.572,4.858,1.54,8.311c-0.008,0.872-0.331,1.631-0.993,2.287c-0.65,0.645-1.411,0.962-2.281,0.962
			c-0.916,0-1.715-0.317-2.354-0.962c-0.638-0.657-0.959-1.415-0.951-2.287c0.021-2.344-0.312-4.201-1.012-5.571
			c-0.7-1.359-1.516-2.378-2.436-3.057c-0.921-0.679-1.855-1.121-2.814-1.302c-0.959-0.193-1.682-0.283-2.179-0.283
			c-2.227,0-4.144,0.713-5.762,2.14c-1.938,1.789-2.912,4.45-2.944,7.983l-0.336,36.699c-0.001,0.147-0.004,0.476-0.01,1.053
			c-0.005,0.6,0.044,1.325,0.161,2.185c0.116,0.872,0.334,1.8,0.675,2.786c0.33,0.996,0.865,1.857,1.593,2.593
			c1.343,1.506,3.382,2.242,6.095,2.242c2.905,0,5.049-0.781,6.431-2.333c0.685-0.736,1.213-1.563,1.594-2.503
			c0.382-0.929,0.65-1.8,0.815-2.604c0.166-0.804,0.253-1.755,0.264-2.865l0.109-11.901h-6.5c-0.927,0-1.715-0.317-2.354-0.974
			c-0.638-0.645-0.959-1.438-0.951-2.367c0.008-0.861,0.343-1.619,0.993-2.265c0.65-0.657,1.445-0.985,2.372-0.985h12.989
			l-0.167,18.208c0.054,0.249,0.072,0.781,0.031,1.585c-0.041,0.793-0.151,1.721-0.353,2.774c-0.709,3.408-2.069,6.205-4.067,8.368
			c-2.808,2.978-6.563,4.461-11.266,4.461c-4.691,0-8.329-1.483-10.891-4.461c-2.083-2.163-3.39-5.107-3.91-8.821
			c-0.115-1.053-0.185-1.982-0.212-2.786s0.001-1.37,0.061-1.676l0.333-36.416c0.026-2.842,0.501-5.322,1.413-7.428
			c0.924-2.106,2.092-3.839,3.529-5.197c1.437-1.359,3.051-2.367,4.843-3.012C139.191,127.083,141.025,126.754,142.868,126.754z"/>
	</g>
</g>
</svg>
